<svg width="358" height="313" viewBox="0 0 358 313" fill="none" xmlns="http://www.w3.org/2000/svg">
<g clip-path="url(#clip0)">
<path d="M22.5498 54.2L347.64 59.84L318.93 297.26H46.1498L22.5498 54.2Z" fill="#5C2517"/>
<path d="M47.3301 73.42L325.74 75.86L301.58 272.03L65.6601 276.95L47.3301 73.42Z" fill="#35A134"/>
<path d="M74.6598 276.95L57.2998 82.97H324.87L301.58 272.03L74.6598 276.95Z" fill="#41C740"/>
<path d="M163.911 150.3H148.832V148.198L156.798 139.347C157.979 138.009 158.79 136.923 159.233 136.091C159.686 135.248 159.912 134.378 159.912 133.483C159.912 132.282 159.549 131.296 158.822 130.527C158.095 129.758 157.125 129.373 155.913 129.373C154.459 129.373 153.326 129.79 152.515 130.622C151.714 131.444 151.314 132.592 151.314 134.068H148.39C148.39 131.95 149.069 130.237 150.429 128.931C151.799 127.624 153.627 126.971 155.913 126.971C158.052 126.971 159.744 127.535 160.987 128.662C162.23 129.779 162.852 131.27 162.852 133.135C162.852 135.401 161.408 138.098 158.521 141.228L152.357 147.913H163.911V150.3ZM183.716 137.956H190.133V140.722H183.716V147.992H180.776V140.722H174.359V137.956H180.776V131.238H183.716V137.956ZM216.512 150.3H201.434V148.198L209.4 139.347C210.58 138.009 211.391 136.923 211.834 136.091C212.287 135.248 212.513 134.378 212.513 133.483C212.513 132.282 212.15 131.296 211.423 130.527C210.696 129.758 209.726 129.373 208.515 129.373C207.06 129.373 205.928 129.79 205.116 130.622C204.316 131.444 203.915 132.592 203.915 134.068H200.991C200.991 131.95 201.671 130.237 203.03 128.931C204.4 127.624 206.228 126.971 208.515 126.971C210.654 126.971 212.345 127.535 213.588 128.662C214.832 129.779 215.453 131.27 215.453 133.135C215.453 135.401 214.01 138.098 211.123 141.228L204.958 147.913H216.512V150.3ZM241.311 137.434H228.129V134.89H241.311V137.434ZM241.311 143.994H228.129V141.465H241.311V143.994ZM265.779 142.571H268.971V144.958H265.779V150.3H262.839V144.958H252.36V143.235L262.665 127.287H265.779V142.571ZM255.679 142.571H262.839V131.286L262.491 131.918L255.679 142.571Z" fill="black"/>
<path d="M161.177 183.461H164.369V185.848H161.177V191.19H158.237V185.848H147.758V184.125L158.063 168.177H161.177V183.461ZM151.077 183.461H158.237V172.176L157.889 172.808L151.077 183.461ZM183.716 178.846H190.133V181.612H183.716V188.882H180.776V181.612H174.359V178.846H180.776V172.128H183.716V178.846ZM213.778 183.461H216.971V185.848H213.778V191.19H210.838V185.848H200.359V184.125L210.664 168.177H213.778V183.461ZM203.678 183.461H210.838V172.176L210.49 172.808L203.678 183.461ZM241.311 178.324H228.129V175.779H241.311V178.324ZM241.311 184.883H228.129V182.355H241.311V184.883ZM257.164 184.71C257.186 183.456 257.328 182.465 257.591 181.738C257.855 181.011 258.392 180.205 259.203 179.32L261.274 177.186C262.159 176.185 262.602 175.11 262.602 173.962C262.602 172.855 262.312 171.991 261.732 171.37C261.153 170.737 260.31 170.421 259.203 170.421C258.129 170.421 257.265 170.706 256.611 171.275C255.958 171.844 255.631 172.608 255.631 173.567H252.707C252.728 171.86 253.334 170.485 254.525 169.441C255.726 168.388 257.286 167.861 259.203 167.861C261.195 167.861 262.744 168.398 263.85 169.473C264.967 170.537 265.526 172.002 265.526 173.867C265.526 175.711 264.672 177.529 262.965 179.32L261.242 181.027C260.473 181.88 260.088 183.108 260.088 184.71H257.164ZM257.038 189.72C257.038 189.246 257.18 188.851 257.465 188.535C257.76 188.208 258.192 188.045 258.761 188.045C259.33 188.045 259.762 188.208 260.057 188.535C260.352 188.851 260.499 189.246 260.499 189.72C260.499 190.194 260.352 190.589 260.057 190.905C259.762 191.211 259.33 191.364 258.761 191.364C258.192 191.364 257.76 191.211 257.465 190.905C257.18 190.589 257.038 190.194 257.038 189.72Z" fill="black"/>
<path d="M228.71 223C228.45 227.35 227.21 232.27 222.9 234.3C218.59 236.33 214.9 233.3 212.73 229.74C208.87 223.44 207.31 216.01 201.55 210.92C197.07 206.97 190.55 205.04 185.06 208.09C179.74 211.04 177.06 217.23 175.38 222.8C172.637 232.167 171.424 241.916 171.79 251.67C171.79 252.31 172.79 252.32 172.79 251.67C172.445 242.637 173.456 233.603 175.79 224.87C177.61 218.2 180.9 209.37 188.59 207.8C197.89 205.89 204.4 214.55 207.85 221.89C210.14 226.75 212.23 234.23 218.22 235.74C225.84 237.66 229.31 228.96 229.67 223C229.75 222.36 228.75 222.36 228.71 223Z" fill="#FFDF42"/>
<path d="M232.39 225.26L230.66 223.49C230.36 223.18 230.05 222.73 229.66 222.6C229.467 222.568 229.269 222.574 229.079 222.619C228.888 222.663 228.708 222.745 228.55 222.86L226.55 223.86C225.97 224.15 226.48 225.01 227.05 224.73C227.62 224.45 228.97 223.48 229.56 223.73C229.92 223.9 230.3 224.49 230.56 224.73C230.82 224.97 231.33 225.51 231.71 225.91C232.09 226.31 232.84 225.72 232.39 225.26Z" fill="#FFDF42"/>
<path d="M154.47 257.16L229.39 247.12V243.41L154.02 254.33L154.47 257.16Z" fill="white"/>
<path d="M163.18 209.31L171.51 268.92L174.18 268L166.84 209.31H163.18Z" fill="white"/>
<path d="M159.15 237.8C157.89 237.23 156.66 236.61 155.46 235.95L157.24 232.59C157.85 231.45 156.12 230.44 155.52 231.59L153.73 234.95C152.97 234.48 152.22 234 151.48 233.5C150.42 232.76 149.42 234.5 150.48 235.22C151.24 235.75 152.02 236.22 152.8 236.72L150.91 240.28C150.3 241.41 152.03 242.43 152.63 241.28L154.53 237.71C155.71 238.36 156.92 238.97 158.15 239.52C159.38 240.07 160.33 238.32 159.15 237.8Z" fill="white"/>
<path d="M206.16 257.16C205.83 258.1 205.51 259.03 205.16 259.97C202.896 259.05 200.582 258.259 198.23 257.6C197.974 257.53 197.7 257.564 197.47 257.695C197.239 257.827 197.07 258.044 197 258.3C196.929 258.556 196.964 258.829 197.095 259.06C197.226 259.291 197.444 259.46 197.7 259.53C200.014 260.166 202.288 260.941 204.51 261.85C204.01 263.27 203.51 264.7 203.03 266.13C202.6 267.34 204.54 267.87 204.96 266.66L206.55 262.05C206.708 261.929 206.828 261.764 206.892 261.575C206.956 261.386 206.962 261.182 206.91 260.99L208.06 257.69C208.51 256.47 206.58 256 206.16 257.16Z" fill="white"/>
<path d="M119 166.63C115.46 169.1 110.83 167.34 107.75 164.21C105.13 161.54 103.49 158.16 101.66 154.98C99.2803 150.85 94.7503 144.42 89.3403 146.23C83.9303 148.04 85.0903 155.69 85.2403 160.23C85.3503 163.76 85.7603 167.48 85.1803 170.92C84.5003 175 81.0603 179.51 76.1803 177.36C76.1232 177.332 76.0612 177.316 75.9979 177.313C75.9346 177.309 75.8711 177.318 75.8112 177.339C75.6903 177.381 75.591 177.47 75.5353 177.585C75.4796 177.7 75.4721 177.833 75.5143 177.954C75.5565 178.075 75.645 178.174 75.7603 178.23C81.2003 180.65 85.3303 175.99 86.1303 171.23C86.6703 167.97 86.3403 164.5 86.2303 161.17C86.1003 157.29 85.0503 151.74 87.6303 148.69C91.2903 144.38 96.6303 149.06 99.1503 152.79C101.29 155.97 102.8 159.5 105.15 162.59C108.55 167.19 114.67 170.94 119.59 167.49C120.11 167.14 119.53 166.27 119 166.63Z" fill="#FFDF42"/>
<path d="M103.42 195.87C98.5332 178.01 93.8099 160.103 89.2499 142.15C89.2151 142.023 89.1557 141.905 89.075 141.801C88.9944 141.697 88.8941 141.61 88.7799 141.545C88.6657 141.48 88.5398 141.438 88.4094 141.422C88.279 141.406 88.1466 141.415 88.0199 141.45C87.8932 141.485 87.7745 141.544 87.6708 141.625C87.567 141.706 87.4802 141.806 87.4152 141.92C87.3502 142.034 87.3083 142.16 87.2919 142.291C87.2756 142.421 87.2851 142.553 87.3199 142.68C91.8799 160.627 96.6032 178.533 101.49 196.4C101.56 196.656 101.729 196.874 101.96 197.005C102.191 197.136 102.464 197.17 102.72 197.1C102.976 197.03 103.193 196.861 103.325 196.63C103.456 196.399 103.49 196.126 103.42 195.87Z" fill="white"/>
<path d="M74.4503 182.4C92.3103 177.507 110.217 172.783 128.17 168.23C128.426 168.158 128.643 167.988 128.774 167.756C128.904 167.525 128.937 167.251 128.865 166.995C128.794 166.739 128.623 166.522 128.392 166.392C128.16 166.261 127.886 166.228 127.63 166.3C109.69 170.86 91.787 175.583 73.9203 180.47C73.7936 180.505 73.6749 180.564 73.5712 180.645C73.4674 180.726 73.3806 180.826 73.3156 180.94C73.2506 181.054 73.2087 181.18 73.1923 181.311C73.176 181.441 73.1855 181.573 73.2203 181.7C73.2551 181.827 73.3145 181.945 73.3952 182.049C73.4758 182.153 73.5761 182.24 73.6903 182.305C73.8045 182.37 73.9304 182.412 74.0608 182.428C74.1912 182.444 74.3236 182.435 74.4503 182.4Z" fill="white"/>
<path d="M347.64 297.26H17.1602L20.1602 312.87H344.66L347.64 297.26Z" fill="#A14028"/>
<path d="M277 238.81C276.901 238.238 276.974 237.65 277.21 237.12C277.483 236.742 277.847 236.439 278.27 236.24C280.205 235.18 282.304 234.45 284.48 234.08C284.645 234.017 284.824 233.999 284.998 234.028C285.173 234.057 285.337 234.132 285.473 234.245C285.609 234.357 285.713 234.504 285.774 234.67C285.835 234.837 285.851 235.016 285.82 235.19C286.546 246.25 287.273 257.303 288 268.35C288.26 272.35 289.91 280.25 283.75 278.43C279.94 277.31 279.97 274.65 279.69 271.24C278.8 260.43 277.88 249.62 277 238.81Z" fill="#E8E8E8"/>
<path d="M288.15 230.94C288.046 229.429 288.394 227.922 289.15 226.61C290.5 224.72 293.15 224.45 295.48 224.35C296.113 224.245 296.762 224.381 297.3 224.73C297.558 225.045 297.739 225.416 297.828 225.814C297.917 226.212 297.91 226.625 297.81 227.02C296.85 237.291 296.85 247.629 297.81 257.9C298.29 262.97 300.9 275.47 295.69 278.9C291.07 281.9 289.86 274.9 289.31 271.74C288.31 266.22 288.57 260.57 288.36 254.99C288.04 246.997 287.97 238.98 288.15 230.94Z" fill="#E8E8E8"/>
<path d="M306.71 244.7C306.822 243.192 307.379 241.752 308.31 240.56C309.92 238.88 312.59 239 314.9 239.25C315.544 239.239 316.169 239.471 316.65 239.9C316.857 240.249 316.98 240.641 317.009 241.045C317.039 241.449 316.974 241.855 316.82 242.23C314.377 252.252 312.873 262.479 312.33 272.78C312.07 277.87 312.81 290.62 307.17 293.22C302.17 295.53 301.99 288.39 301.91 285.22C301.76 279.62 302.81 274.06 303.41 268.52C304.27 260.533 305.37 252.593 306.71 244.7Z" fill="white"/>
<path d="M282.44 246.45C282.287 245.609 282.447 244.741 282.89 244.01C283.376 243.501 284.016 243.167 284.71 243.06C286.804 242.553 288.972 242.427 291.11 242.69C292.13 254.603 293.154 266.51 294.18 278.41C294.425 279.993 294.347 281.608 293.95 283.16C292.66 287.16 289.26 286.24 287.51 283.42C285.76 280.6 285.95 277.06 285.51 274.15C284.057 264.97 283.034 255.737 282.44 246.45Z" fill="white"/>
<path d="M309.11 235.49C309.25 234.647 309.076 233.782 308.62 233.06C308.125 232.558 307.478 232.234 306.78 232.14C304.679 231.669 302.511 231.581 300.38 231.88C299.56 243.8 298.736 255.723 297.91 267.65C297.693 269.234 297.795 270.846 298.21 272.39C299.58 276.39 302.95 275.39 304.66 272.54C306.37 269.69 306.11 266.16 306.52 263.24C307.813 254.033 308.676 244.783 309.11 235.49Z" fill="#E8E8E8"/>
<path d="M304.76 239.45C304.831 238.873 304.727 238.287 304.46 237.77C304.172 237.405 303.793 237.122 303.36 236.95C301.371 235.99 299.235 235.371 297.04 235.12C296.872 235.075 296.696 235.067 296.523 235.094C296.351 235.122 296.187 235.185 296.04 235.28C295.924 235.417 295.836 235.576 295.783 235.748C295.73 235.92 295.712 236.101 295.73 236.28L295.31 269.51C295.31 273.51 294.03 281.51 300.08 279.35C303.83 278.03 303.66 275.35 303.75 271.96C304.084 261.127 304.42 250.29 304.76 239.45Z" fill="white"/>
<path d="M270.16 253.45L273.66 297.26H306.16L308.66 253.45H270.16Z" fill="#EA4156"/>
<path d="M308.66 253.45H319.66L316.66 297.26H306.16L308.66 253.45Z" fill="#A62D40"/>
<path d="M315.73 259.72C315.82 257.8 312.83 257.59 312.73 259.52C312.47 264.853 312.137 270.187 311.73 275.52C311.703 275.918 311.836 276.31 312.099 276.61C312.361 276.91 312.732 277.093 313.13 277.12C313.528 277.146 313.92 277.014 314.22 276.751C314.52 276.489 314.703 276.118 314.73 275.72C315.15 270.393 315.483 265.06 315.73 259.72Z" fill="white"/>
<path d="M311.4 280.48L311.13 284.48C311.104 284.878 311.236 285.27 311.499 285.57C311.761 285.87 312.132 286.053 312.53 286.08C312.928 286.107 313.32 285.974 313.62 285.711C313.92 285.449 314.104 285.078 314.13 284.68L314.4 280.68C314.427 280.282 314.294 279.89 314.032 279.59C313.769 279.29 313.398 279.107 313 279.08C312.602 279.053 312.21 279.186 311.91 279.449C311.61 279.711 311.427 280.082 311.4 280.48Z" fill="white"/>
<path d="M226.62 291.95L228.83 271.37L279.16 270.05L281.16 290.28L226.62 291.95Z" fill="#FFDF42"/>
<path d="M262.88 273.42C253.22 273.8 243.553 274.063 233.88 274.21C231.95 274.21 231.95 277.21 233.88 277.21C243.553 277.063 253.22 276.8 262.88 276.42C264.8 276.35 264.81 273.35 262.88 273.42Z" fill="white"/>
<path d="M274.22 272.55L269.55 272.92C267.64 273.07 267.63 276.07 269.55 275.92L274.22 275.55C276.13 275.4 276.15 272.4 274.22 272.55Z" fill="white"/>
<path d="M226.62 292C226.62 292 227.16 297 230.49 297.33H278.66C278.66 297.33 281.66 295.33 281.16 290.33L226.62 292Z" fill="#DF953E"/>
<path d="M127.26 128C127.181 127.728 126.999 127.497 126.752 127.357C126.506 127.217 126.214 127.179 125.94 127.25C125.671 127.334 125.443 127.517 125.304 127.762C125.165 128.007 125.124 128.296 125.19 128.57C125.307 129.378 125.333 130.196 125.27 131.01C125.273 131.293 125.386 131.564 125.586 131.764C125.786 131.964 126.057 132.077 126.34 132.08C126.622 132.075 126.891 131.96 127.091 131.761C127.291 131.561 127.405 131.292 127.41 131.01C127.47 130.004 127.42 128.995 127.26 128Z" fill="#6C8B9D"/>
<path d="M166.69 124.9C166.5 124.3 166.31 123.7 166.13 123.11C166.055 122.835 165.875 122.602 165.629 122.46C165.382 122.319 165.089 122.281 164.815 122.355C164.54 122.429 164.306 122.609 164.165 122.856C164.023 123.103 163.985 123.395 164.06 123.67C164.25 124.27 164.44 124.87 164.62 125.47C164.703 125.739 164.886 125.967 165.131 126.106C165.377 126.245 165.666 126.286 165.94 126.22C166.21 126.138 166.439 125.956 166.579 125.71C166.719 125.464 166.758 125.174 166.69 124.9Z" fill="#6C8B9D"/>
<path d="M120.29 16.83L124.57 37.27C124.57 37.27 134.48 36.99 138.12 33.52L133.05 14.26L120.29 16.83Z" fill="#26353A"/>
<path d="M168.92 80.4C150.974 83.6266 132.94 86.2933 114.82 88.4C113.46 88.56 113.52 90.7 114.89 90.54C133.19 88.3933 151.41 85.6833 169.55 82.41C170.9 82.2 170.26 80.16 168.92 80.4Z" fill="#26353A"/>
<path d="M123.25 49.16C123.25 49.16 118 128.09 126.11 130C134.22 131.91 136.11 49.17 136.11 49.17L123.25 49.16Z" fill="#B0C4CB"/>
<path d="M124.32 55.2599C123.38 71.1799 122.887 87.1133 122.84 103.06C122.84 103.532 123.027 103.985 123.361 104.319C123.695 104.652 124.148 104.84 124.62 104.84C125.092 104.84 125.545 104.652 125.878 104.319C126.212 103.985 126.4 103.532 126.4 103.06C126.46 87.1199 126.953 71.1866 127.88 55.2599C128 52.9999 124.45 52.9999 124.32 55.2599Z" fill="#FDFEFF"/>
<path d="M127.24 121.23C126.813 117.43 126.38 113.633 125.94 109.84C125.68 107.59 122.11 107.56 122.37 109.84C122.81 113.64 123.247 117.437 123.68 121.23C123.93 123.48 127.5 123.51 127.24 121.23Z" fill="#FDFEFF"/>
<path d="M145.37 46.3101C145.37 46.3101 172.75 120.53 165.54 124.64C158.33 128.75 133.05 50.0001 133.05 50.0001L145.37 46.3101Z" fill="#B0C4CB"/>
<path d="M117.59 35.16C115.849 38.3643 114.997 41.9756 115.12 45.62C115.12 51.11 117.03 56.92 121.44 60.19C122.884 61.2226 124.484 62.0161 126.18 62.54C131.144 64.2609 136.587 63.9592 141.33 61.7C151.5 56.51 152.58 40.13 144.78 32.37C137.56 25.18 123 25.91 117.59 35.16Z" fill="#A72C40"/>
<path d="M124.13 39.73C123.157 41.5297 122.677 43.555 122.74 45.6C122.74 48.69 123.81 51.95 126.29 53.79C127.117 54.3722 128.032 54.8179 129 55.11C131.792 56.0761 134.851 55.9073 137.52 54.64C143.23 51.72 143.83 42.52 139.46 38.16C135.34 34.12 127.15 34.53 124.13 39.73Z" fill="#EA4156"/>
<path d="M136.1 20L132.38 20.76L131.69 20.91L127.43 21.78L126.72 21.93L123.34 22.62L122.63 22.76L120.29 23.25L115.12 3.85C115.937 3.25634 116.828 2.77222 117.77 2.41C117.98 2.31 118.21 2.22 118.43 2.14C119.777 1.65813 121.157 1.27707 122.56 1L123.26 0.86C124.81 0.57 126.33 0.39 127.66 0.27L128.37 0.2C130.52 0 132 0 132 0L136.1 20Z" fill="#EE4355"/>
<path d="M151.22 67.06C154.887 77.7267 158.263 88.4533 161.35 99.24C161.422 99.5545 161.37 99.8845 161.206 100.162C161.042 100.44 160.777 100.644 160.467 100.732C160.157 100.821 159.825 100.787 159.539 100.638C159.253 100.488 159.035 100.235 158.93 99.93C155.85 89.11 152.473 78.38 148.8 67.74C148.27 66.21 150.69 65.54 151.22 67.06Z" fill="#FDFEFF"/>
<path d="M162.29 112.94C161.696 110.313 161.11 107.683 160.53 105.05C160.18 103.49 162.53 102.64 162.9 104.22C163.493 106.847 164.08 109.477 164.66 112.11C165 113.68 162.64 114.52 162.29 112.94Z" fill="#FDFEFF"/>
<path d="M123.34 22.59L122.63 22.73C121.223 15.9033 119.603 9.11999 117.77 2.37999C117.98 2.27999 118.21 2.18999 118.43 2.10999C120.283 8.88999 121.92 15.7167 123.34 22.59Z" fill="#A72C40"/>
<path d="M127.43 21.75L126.72 21.9C125.18 15 123.71 7.99999 122.56 0.999985L123.26 0.859985C124.41 7.84999 125.88 14.81 127.43 21.75Z" fill="#A72C40"/>
<path d="M132.38 20.73L131.69 20.88C130.49 13.9734 129.157 7.09338 127.69 0.240044L128.4 0.170044C129.86 7.00338 131.187 13.8567 132.38 20.73Z" fill="#A72C40"/>
<path d="M66.77 124.6L67.67 121.73L69.81 114.83L70.71 111.96L72.86 105.07L73.75 102.2L75.89 95.31L76.79 92.43L78.94 85.54L79.83 82.67L82 75.76L82.89 72.89L85 66L85.88 63.14L93.52 38.64L0 102.55L65.05 130.14L66.77 124.6ZM29.82 100.53L70.16 72L55.64 111.48L29.82 100.53Z" fill="#FFDF42"/>
<path d="M70.6796 56.34L37.9096 81C37.5913 81.2387 37.3809 81.5941 37.3247 81.9879C37.2684 82.3817 37.3709 82.7818 37.6096 83.1C37.8483 83.4183 38.2036 83.6287 38.5974 83.685C38.9913 83.7412 39.3913 83.6387 39.7096 83.4L72.4796 58.74C72.7978 58.5014 73.0082 58.146 73.0645 57.7522C73.1208 57.3584 73.0183 56.9583 72.7796 56.64C72.5409 56.3218 72.1855 56.1114 71.7917 56.0551C71.3979 55.9989 70.9978 56.1013 70.6796 56.34Z" fill="white"/>
<path d="M30.58 86.48L22.18 92.79C21.8618 93.0314 21.6524 93.3893 21.598 93.785C21.5436 94.1807 21.6487 94.5818 21.89 94.9C22.1314 95.2183 22.4892 95.4276 22.885 95.482C23.2807 95.5364 23.6818 95.4314 24 95.19L32.39 88.88C32.7083 88.64 32.9181 88.2834 32.9735 87.8886C33.0288 87.4938 32.925 87.0933 32.685 86.775C32.445 86.4568 32.0884 86.2469 31.6936 86.1916C31.2988 86.1362 30.8983 86.24 30.58 86.48Z" fill="white"/>
<path d="M84.9997 66L82.2497 65C81.9027 64.8477 81.6262 64.5697 81.4758 64.2219C81.3254 63.8741 81.3121 63.4823 81.4388 63.1251C81.5654 62.768 81.8226 62.472 82.1585 62.2967C82.4945 62.1214 82.8843 62.0797 83.2497 62.18L85.8497 63.18L84.9997 66Z" fill="#26343D"/>
<path d="M81.9998 75.76L78.2898 74.4C77.9428 74.2477 77.6663 73.9698 77.5158 73.622C77.3654 73.2742 77.3522 72.8823 77.4788 72.5252C77.6055 72.168 77.8626 71.872 78.1986 71.6967C78.5345 71.5214 78.9243 71.4797 79.2898 71.58L82.8398 72.89L81.9998 75.76Z" fill="#26343D"/>
<path d="M78.9404 85.54L75.4304 84.25C75.0834 84.0977 74.8069 83.8197 74.6565 83.4719C74.506 83.1241 74.4928 82.7323 74.6195 82.3751C74.7461 82.018 75.0032 81.722 75.3392 81.5467C75.6751 81.3713 76.065 81.3297 76.4304 81.43L79.7904 82.67L78.9404 85.54Z" fill="#26343D"/>
<path d="M75.8898 95.31L72.3298 94C71.9828 93.8477 71.7063 93.5697 71.5559 93.2219C71.4054 92.8741 71.3922 92.4823 71.5189 92.1251C71.6455 91.768 71.9027 91.472 72.2386 91.2967C72.5745 91.1213 72.9644 91.0797 73.3298 91.18L76.7498 92.44L75.8898 95.31Z" fill="#26343D"/>
<path d="M72.8596 105.07L69.1196 103.69C68.7865 103.529 68.5245 103.251 68.3839 102.909C68.2434 102.567 68.2343 102.185 68.3583 101.836C68.4823 101.488 68.7308 101.197 69.0559 101.021C69.381 100.844 69.7598 100.794 70.1196 100.88L73.7196 102.2L72.8596 105.07Z" fill="#26343D"/>
<path d="M69.8098 114.83L66.0698 113.45C65.7367 113.289 65.4747 113.011 65.3341 112.669C65.1936 112.327 65.1845 111.945 65.3085 111.596C65.4325 111.248 65.681 110.957 66.0061 110.781C66.3312 110.604 66.71 110.554 67.0698 110.64L70.7098 112L69.8098 114.83Z" fill="#26343D"/>
<path d="M66.7697 124.6L62.9997 123.2C62.6527 123.048 62.3762 122.77 62.2258 122.422C62.0754 122.074 62.0621 121.682 62.1888 121.325C62.3154 120.968 62.5726 120.672 62.9085 120.497C63.2445 120.321 63.6343 120.28 63.9997 120.38L67.6697 121.73L66.7697 124.6Z" fill="#26343D"/>
<path d="M70.1603 72.02L29.8203 100.53L36.4203 103.33L66.1703 82.85L70.1603 72.02Z" fill="#BA6C11"/>
<path d="M93.5298 38.67L97.9998 41.33L70.2198 130.57L65.0498 130.14L93.5298 38.67Z" fill="#BA6C11"/>
<path d="M285.36 146.42L292.74 206.22C293.066 208.771 294.373 211.095 296.384 212.699C298.394 214.302 300.951 215.06 303.51 214.81L348.68 210.56C351.259 210.328 353.644 209.09 355.317 207.114C356.99 205.138 357.817 202.582 357.62 200L352.92 140.41C352.808 139.115 352.442 137.854 351.843 136.701C351.243 135.547 350.422 134.523 349.426 133.687C348.431 132.852 347.28 132.22 346.04 131.829C344.8 131.439 343.495 131.296 342.2 131.41L294.35 135.41C293.027 135.516 291.739 135.889 290.563 136.505C289.387 137.122 288.348 137.97 287.508 138.999C286.669 140.027 286.046 141.215 285.676 142.49C285.307 143.765 285.2 145.102 285.36 146.42Z" fill="#26353A"/>
<path d="M280.86 146.55L288.24 206.9C288.551 209.461 289.85 211.799 291.86 213.416C293.87 215.034 296.431 215.803 299 215.56L344.17 211.27C346.758 211.024 349.145 209.77 350.817 207.78C352.49 205.789 353.313 203.222 353.11 200.63L348.41 140.51C348.306 139.207 347.947 137.938 347.351 136.775C346.756 135.612 345.937 134.578 344.941 133.733C343.944 132.887 342.791 132.246 341.547 131.848C340.302 131.449 338.992 131.301 337.69 131.41L289.84 135.48C288.515 135.595 287.226 135.976 286.051 136.599C284.876 137.223 283.839 138.077 283.001 139.11C282.163 140.143 281.542 141.334 281.174 142.612C280.806 143.89 280.699 145.23 280.86 146.55Z" fill="#2D4859"/>
<path d="M288.37 150.85L291.21 175.19L344.35 169.71L342.21 144.36L288.37 150.85Z" fill="#1C2629"/>
<path d="M292.61 180.3L294.34 192.94L310.74 191.04L309.15 178.24L292.61 180.3Z" fill="#B0C4CB"/>
<path d="M312.74 177.76L314.15 190.01L328.9 188.04L327.9 176.01L312.74 177.76Z" fill="#B0C4CB"/>
<path d="M294.34 195.68L295.81 208.37L311.6 206.54L310.74 193.65L294.34 195.68Z" fill="#B0C4CB"/>
<path d="M313.84 193.2L315.04 205.45L330.19 203.68L328.8 191.72L313.84 193.2Z" fill="#B0C4CB"/>
<path d="M331.33 175.93L333.68 203.83L347.19 202.52L344.78 174.35L331.33 175.93Z" fill="#B0C4CB"/>
<path d="M341 184.44L335.49 185.17C335.098 185.187 334.726 185.351 334.449 185.628C334.171 185.906 334.007 186.278 333.99 186.67C333.99 187.4 334.69 188.28 335.49 188.17L341 187.44C341.394 187.428 341.768 187.265 342.047 186.987C342.326 186.708 342.488 186.334 342.5 185.94C342.48 185.21 341.78 184.33 341 184.44Z" fill="white"/>
<path d="M340.84 190.48C339.499 190.862 338.114 191.067 336.72 191.09C334.79 191.09 334.78 194.09 336.72 194.09C338.384 194.06 340.037 193.818 341.64 193.37C342.013 193.255 342.326 192.999 342.513 192.657C342.7 192.314 342.747 191.913 342.643 191.537C342.539 191.161 342.292 190.84 341.955 190.643C341.619 190.446 341.219 190.387 340.84 190.48Z" fill="white"/>
<path d="M306.37 185.88L304.5 185.17L305.21 184.35C306.47 182.9 304.36 180.77 303.09 182.23C302.57 182.84 302.09 183.44 301.52 184.04L298.38 182.86C296.57 182.17 295.79 185.07 297.58 185.75L299.43 186.45L298.21 187.84C296.95 189.29 299.07 191.42 300.34 189.96L302.41 187.58L305.57 188.78C307.38 189.46 308.16 186.56 306.37 185.88Z" fill="white"/>
<path d="M302 195.35C301.602 195.35 301.221 195.508 300.939 195.789C300.658 196.071 300.5 196.452 300.5 196.85C300.5 197.248 300.658 197.629 300.939 197.911C301.221 198.192 301.602 198.35 302 198.35C302.398 198.35 302.779 198.192 303.061 197.911C303.342 197.629 303.5 197.248 303.5 196.85C303.5 196.452 303.342 196.071 303.061 195.789C302.779 195.508 302.398 195.35 302 195.35Z" fill="white"/>
<path d="M305.29 199.31C303.47 199.764 301.593 199.946 299.72 199.85C297.78 199.76 297.79 202.76 299.72 202.85C301.864 202.949 304.01 202.73 306.09 202.2C308 201.73 307.17 198.84 305.29 199.31Z" fill="white"/>
<path d="M303.47 203.6H303.22C302.822 203.6 302.44 203.758 302.159 204.039C301.878 204.321 301.72 204.702 301.72 205.1C301.72 205.498 301.878 205.879 302.159 206.161C302.44 206.442 302.822 206.6 303.22 206.6H303.47C303.868 206.6 304.249 206.442 304.53 206.161C304.812 205.879 304.97 205.498 304.97 205.1C304.97 204.702 304.812 204.321 304.53 204.039C304.249 203.758 303.868 203.6 303.47 203.6Z" fill="white"/>
<path d="M324.34 181.07L322.15 181.43C322.09 180.9 322.01 180.38 321.97 179.85C321.81 177.94 318.81 177.92 318.97 179.85C318.97 180.54 319.12 181.22 319.2 181.9L317.32 182.21C315.42 182.51 316.23 185.4 318.12 185.1L319.66 184.85C319.75 185.32 319.82 185.85 319.92 186.27C320.33 188.16 323.22 187.36 322.81 185.47C322.73 185.11 322.68 184.74 322.61 184.37L325.14 183.96C327 183.66 326.24 180.77 324.34 181.07Z" fill="white"/>
<path d="M323.72 197.2L319.21 197.58C317.3 197.74 317.29 200.75 319.21 200.58L323.72 200.2C325.63 200 325.65 197 323.72 197.2Z" fill="white"/>
<path d="M295.2 174.78L292.61 154.6L342.48 147.47L344.35 169.71L295.2 174.78Z" fill="#26353A"/>
<path d="M315.77 109.63C309.46 109.99 303.58 105.35 297.77 104.16C294.67 103.52 291.5 104.31 288.37 103.68C284.392 102.884 280.811 100.74 278.23 97.61C274.74 93.33 273.23 87.74 273.17 82.05C273.166 79.0941 273.543 76.15 274.29 73.29C276.34 65.43 281.21 57.95 288.41 54.53C295.86 50.98 304.98 51.43 312.95 54.59C321.36 57.94 329.95 64.68 332.66 73.59C333.571 76.52 333.79 79.6212 333.3 82.65C331.83 91.86 327.12 109 315.77 109.63Z" fill="#EE4355"/>
<path d="M325 67.21C323.08 64.62 319.12 67.68 321 70.27C323.329 73.3531 324.722 77.0418 325.011 80.8953C325.3 84.7487 324.473 88.604 322.63 92C321.13 94.86 325.75 96.78 327.23 93.95C329.425 89.7383 330.381 84.9903 329.986 80.2572C329.591 75.5241 327.862 71 325 67.21Z" fill="white"/>
<path d="M322.17 96.62C321.641 96.2224 320.978 96.0479 320.321 96.1339C319.665 96.2199 319.069 96.5595 318.66 97.08C318.345 97.668 317.904 98.18 317.37 98.58C317.186 98.7525 316.968 98.8853 316.73 98.97C316.353 99.1439 315.962 99.2845 315.56 99.39C314.95 99.6503 314.467 100.141 314.216 100.755C313.966 101.369 313.967 102.057 314.22 102.67C314.49 103.269 314.981 103.741 315.589 103.989C316.198 104.236 316.879 104.24 317.49 104C319.628 103.401 321.463 102.019 322.63 100.13C323.013 99.5958 323.179 98.9359 323.093 98.2842C323.008 97.6324 322.678 97.0375 322.17 96.62Z" fill="white"/>
<path d="M293.43 55.27C292.874 55.3405 292.341 55.532 291.868 55.8309C291.394 56.1298 290.992 56.5289 290.69 57C290.495 57.5898 290.51 58.2286 290.73 58.8093C290.95 59.39 291.363 59.8774 291.9 60.19C292.987 60.7911 294.208 61.1108 295.45 61.12C300.74 61.56 306.11 61.61 311.21 63.06C313.016 63.7196 314.892 64.1725 316.8 64.41C317.239 64.4697 317.686 64.3818 318.07 64.16C319.02 63.49 318.42 61.99 317.67 61.16C311.94 54.45 301.45 53.26 293.43 55.27Z" fill="#A72C40"/>
<path d="M297.3 34.85C295.95 33.49 293.64 35.41 295.01 36.78C297.779 39.4886 299.982 42.7204 301.491 46.2877C303 49.855 303.785 53.6867 303.8 57.56C303.8 59.47 306.8 59.78 306.8 57.85C306.818 53.5782 305.988 49.3454 304.357 45.3971C302.726 41.4489 300.328 37.8638 297.3 34.85Z" fill="#26353A"/>
<path d="M305.86 59.43C307.529 55.8559 309.902 52.6552 312.837 50.0194C315.772 47.3837 319.208 45.3669 322.94 44.09C322.45 48.53 321.29 53.29 318.12 56.43C316.538 57.99 314.563 59.0926 312.404 59.6208C310.246 60.149 307.984 60.0831 305.86 59.43Z" fill="#35A134"/>
<path d="M25.9004 195.85L37.9504 297.28H49.9904L41.2204 194.09L25.9004 195.85Z" fill="#C46330"/>
<path d="M108.59 193.65L109.49 297.26H122.8L127.77 194.42L108.59 193.65Z" fill="#C46330"/>
<path d="M42.9805 214.85L108.72 208.54L108.82 219.47L43.7905 224.34L42.9805 214.85Z" fill="#A6412D"/>
<path d="M45.7695 247.63L109.02 242.52V253.37L46.6595 258.17L45.7695 247.63Z" fill="#A6412D"/>
<path d="M48.1299 275.36L109.25 270.05V279.73L49.0299 286.02L48.1299 275.36Z" fill="#A6412D"/>
<path d="M86 210.36C85.9776 209.704 85.707 209.081 85.2429 208.617C84.7789 208.153 84.1559 207.882 83.5 207.86C82.8386 207.865 82.2057 208.13 81.738 208.598C81.2703 209.066 81.0052 209.699 81 210.36C81.48 213.907 81.9533 217.46 82.42 221.02C82.4424 221.676 82.713 222.299 83.1771 222.763C83.6411 223.227 84.2641 223.498 84.92 223.52C85.5822 223.517 86.2166 223.253 86.6849 222.785C87.1531 222.317 87.4174 221.682 87.42 221.02C86.92 217.473 86.4467 213.92 86 210.36Z" fill="#ED4054"/>
<path d="M95.5099 219.71L94.2199 209.37C93.8299 206.22 88.8299 206.18 89.2199 209.37L90.5099 219.71C90.8999 222.86 95.8999 222.9 95.5099 219.71Z" fill="#ED4054"/>
<path d="M104.1 219.34L103 209.69C102.64 206.53 97.63 206.49 98 209.69L99.11 219.34C99.46 222.5 104.46 222.54 104.1 219.34Z" fill="#ED4054"/>
<path d="M67.7104 256.06C67.1704 252.947 66.7871 249.817 66.5604 246.67C66.3304 243.48 61.3304 243.46 61.5604 246.67C61.8232 250.263 62.2671 253.841 62.8904 257.39C63.4404 260.56 68.2604 259.22 67.7104 256.06Z" fill="#FFDF42"/>
<path d="M77.9096 255.7C77.4796 252.14 77.0396 248.59 76.6096 245.03C76.2196 241.88 71.2196 241.84 71.6096 245.03C72.0396 248.59 72.4796 252.14 72.9096 255.7C73.2996 258.85 78.2996 258.89 77.9096 255.7Z" fill="#FFDF42"/>
<path d="M90.4501 281.24C89.6616 278.68 89.1586 276.041 88.9501 273.37C88.7201 270.18 83.7201 270.15 83.9501 273.37C84.1629 276.49 84.7265 279.576 85.6301 282.57C86.5701 285.64 91.4001 284.33 90.4501 281.24Z" fill="#B0C4CB"/>
<path d="M100.17 279.18L99.0001 271.18C98.8203 270.544 98.3972 270.005 97.8225 269.679C97.2478 269.354 96.5678 269.268 95.9301 269.44C95.2998 269.629 94.7663 270.053 94.4405 270.625C94.1146 271.196 94.0214 271.871 94.1801 272.51C94.5668 275.177 94.9534 277.843 95.3401 280.51C95.5222 281.147 95.9468 281.687 96.5227 282.014C97.0986 282.341 97.7798 282.429 98.4201 282.26C99.0498 282.067 99.5819 281.64 99.9073 281.068C100.233 280.495 100.327 279.82 100.17 279.18Z" fill="#B0C4CB"/>
<path d="M60.3504 285.84C59.9771 282.507 59.6038 279.173 59.2304 275.84C58.8804 272.68 53.8804 272.64 54.2304 275.84C54.5804 279.04 54.9804 282.5 55.3504 285.84C55.7004 289 60.7104 289 60.3504 285.84Z" fill="#B0C4CB"/>
<path d="M26.7305 202.88L36.8105 201.07L46.1505 297.26L37.9505 297.28L26.7305 202.88Z" fill="#D96E34"/>
<path d="M114.22 201.07L112.88 297.26H122.8L127.45 201.07H114.22Z" fill="#D96E34"/>
<path d="M248.38 100.78L217.88 112.69L214.78 104.52L213.72 101.73L210.44 93.1301L209.38 90.34L205.59 80.3901L204.53 77.6101L200.71 67.5501L199.63 64.7701L196 55.2201L194.94 52.4301L191.31 42.8901L190.25 40.1001L186.53 30.3501L216 18.1801L248.38 100.78Z" fill="#C46330"/>
<path d="M188.47 35.44L209.82 25.77L241.72 103.38L217.88 112.69L188.47 35.44Z" fill="#D96E34"/>
<path d="M233.19 80.94C226.71 65.46 220.813 49.76 215.5 33.84C214.89 32.02 211.99 32.84 212.61 34.64C217.943 50.5466 223.836 66.2466 230.29 81.74C231 83.49 233.93 82.72 233.19 80.94Z" fill="white"/>
<path d="M237.73 92.42L235.73 87.42C235.6 87.054 235.339 86.7492 234.997 86.5645C234.656 86.3798 234.258 86.3283 233.88 86.42C233.496 86.5274 233.171 86.7822 232.974 87.1287C232.777 87.4752 232.726 87.8855 232.83 88.27C233.497 89.93 234.18 91.5966 234.88 93.27C235.008 93.6373 235.269 93.9436 235.611 94.1286C235.954 94.3136 236.353 94.364 236.73 94.27C237.103 94.15 237.415 93.8905 237.602 93.5458C237.788 93.2011 237.834 92.7978 237.73 92.42Z" fill="white"/>
<path d="M216 18.1801L248.38 100.78L253.89 97.5501L223.22 18.1801H216Z" fill="#A6412D"/>
<path d="M201.59 38.74L191.31 42.89L190.25 40.1L200.8 35.84C202.59 35.12 203.36 38 201.59 38.74Z" fill="#1C2629"/>
<path d="M205.21 51.5L196 55.22L195 52.43L204.46 48.61C206.21 47.89 207 50.79 205.21 51.5Z" fill="#1C2629"/>
<path d="M208.83 64.27L200.71 67.55L199.64 64.77L208 61.38C209.82 60.65 210.6 63.56 208.83 64.27Z" fill="#1C2629"/>
<path d="M213.91 77L205.59 80.35L204.53 77.57L213.11 74.11C214.9 73.42 215.67 76.32 213.91 77Z" fill="#1C2629"/>
<path d="M218.66 89.8101L210.44 93.1301L209.38 90.3401L217.87 86.9101C219.66 86.1901 220.43 89.0901 218.66 89.8101Z" fill="#1C2629"/>
<path d="M222.47 101.42L214.78 104.52L213.72 101.73C216.37 100.67 219.02 99.5901 221.67 98.5201C223.47 97.8001 224.24 100.7 222.47 101.42Z" fill="#1C2629"/>
</g>
<defs>
<clipPath id="clip0">
<rect width="357.65" height="312.87" fill="white"/>
</clipPath>
</defs>
</svg>
