<svg width="50" height="50" viewBox="0 0 50 50" fill="none" xmlns="http://www.w3.org/2000/svg">
<path d="M50 42.1722C50 46.4954 46.4954 50 42.1722 50H7.82779C3.5046 50 0 46.4954 0 42.1722V10.1761L10.1761 0H42.1722C46.4954 0 50 3.5046 50 7.82779V42.1722Z" fill="#E24C3F"/>
<path opacity="0.2" d="M0 15.6295V10.1761H5.4273L0 15.6295Z" fill="#5D5D5D"/>
<path d="M0 10.1761H6.78415C8.64971 10.1761 10.1761 8.67573 10.1761 6.81018V0L0 10.1761Z" fill="#FF7063"/>
<path d="M8.38086 33.6318V17.2599H16.4844C17.2536 17.2599 17.9368 17.3857 18.5338 17.6368C19.1305 17.8882 19.6252 18.2376 20.0179 18.6851C20.4103 19.1327 20.7088 19.6667 20.9131 20.287C21.117 20.9075 21.2192 21.5943 21.2192 22.3481C21.2192 23.102 21.121 23.8087 20.9247 24.4682C20.7282 25.1278 20.4377 25.6973 20.0533 26.1761C19.6681 26.6553 19.1776 27.0323 18.581 27.3068C17.9839 27.5819 17.2853 27.7191 16.4843 27.7191H11.0427V33.6319H8.38086V33.6318ZM11.0428 19.7098V25.222H15.5658C16.6022 25.222 17.3597 24.9905 17.839 24.5271C18.3177 24.0641 18.5574 23.3375 18.5574 22.348C18.5574 21.4058 18.3021 20.7307 17.7918 20.3221C17.2813 19.914 16.5393 19.7097 15.5658 19.7097H11.0428V19.7098Z" fill="#FF7063"/>
<path d="M30.8069 17.6839L33.3746 16.9771V30.9227C33.3746 31.2212 33.3898 31.4881 33.4216 31.7237C33.4529 31.9592 33.4923 32.1794 33.5393 32.3833C33.602 32.5717 33.6726 32.772 33.7514 32.984C33.8298 33.196 33.9316 33.412 34.0576 33.6318H31.3486C31.2543 33.475 31.1601 33.2629 31.0659 32.9958C31.0028 32.713 30.9558 32.462 30.9245 32.242C30.4535 32.713 29.9153 33.1099 29.3108 33.4316C28.7061 33.7532 28.0582 33.9145 27.3674 33.9145C26.5506 33.9145 25.8323 33.7809 25.212 33.514C24.5914 33.2472 24.0695 32.878 23.6454 32.4069C23.2216 31.9358 22.9036 31.3745 22.6914 30.7226C22.4795 30.0711 22.3734 29.368 22.3734 28.6142V27.4835C22.3734 25.4892 22.8993 23.9893 23.9518 22.9841C25.0036 21.9793 26.535 21.4765 28.5452 21.4765C29.3146 21.4765 30.0683 21.6259 30.8068 21.9241L30.8069 17.6839ZM30.8069 24.3033C30.4612 24.0994 30.0648 23.9581 29.6172 23.8793C29.1697 23.8009 28.7492 23.7615 28.3569 23.7615C27.7287 23.7615 27.1986 23.848 26.7669 24.0205C26.3348 24.1936 25.9814 24.4369 25.7068 24.7509C25.4317 25.0652 25.2357 25.4421 25.1177 25.8816C25 26.3214 24.9411 26.8004 24.9411 27.3186V28.1902C24.9411 28.63 24.9724 29.0581 25.0353 29.4741C25.0979 29.8903 25.2198 30.2555 25.4005 30.5694C25.5807 30.8838 25.8282 31.1387 26.1424 31.3349C26.4564 31.5315 26.8646 31.6295 27.3674 31.6295C27.6973 31.6295 28.0229 31.5746 28.3451 31.4645C28.6668 31.3548 28.9771 31.2095 29.2757 31.0288C29.5738 30.8483 29.8528 30.6481 30.1118 30.428C30.3709 30.2082 30.6026 29.9804 30.8069 29.7449V24.3033Z" fill="#FF7063"/>
<path d="M36.6486 20.4399C36.6486 20.0005 36.7075 19.5724 36.8254 19.1561C36.9431 18.7402 37.1276 18.371 37.3788 18.0489C37.6299 17.7273 37.9599 17.4681 38.3682 17.2716C38.7764 17.0754 39.2633 16.9771 39.8288 16.9771C40.0957 16.9771 40.3977 17.0047 40.7357 17.0596C41.0734 17.1148 41.3677 17.1814 41.6192 17.2599V19.2857H40.6768C40.1898 19.2857 39.8248 19.4193 39.5816 19.6862C39.3379 19.9534 39.2164 20.3222 39.2164 20.7933V21.7592H41.5015L40.8184 23.8793H39.2165V33.6318H36.6488V23.8793H35.1649V21.7592H36.6488V20.4399H36.6486Z" fill="#FF7063"/>
<path d="M8.38086 33.0447V16.6728H16.4844C17.2536 16.6728 17.9368 16.7986 18.5338 17.0497C19.1305 17.3011 19.6252 17.6505 20.0179 18.098C20.4103 18.5456 20.7088 19.0796 20.9131 19.6999C21.117 20.3204 21.2192 21.0072 21.2192 21.7611C21.2192 22.5149 21.121 23.2216 20.9247 23.8811C20.7282 24.5407 20.4377 25.1102 20.0533 25.589C19.6681 26.0682 19.1776 26.4452 18.581 26.7198C17.9839 26.9948 17.2853 27.132 16.4843 27.132H11.0427V33.0448H8.38086V33.0447ZM11.0428 19.1227V24.6349H15.5658C16.6022 24.6349 17.3597 24.4034 17.839 23.94C18.3177 23.477 18.5574 22.7504 18.5574 21.761C18.5574 20.8187 18.3021 20.1436 17.7918 19.735C17.2813 19.3269 16.5393 19.1226 15.5658 19.1226H11.0428V19.1227Z" fill="white"/>
<path d="M30.8069 17.0968L33.3746 16.39V30.3356C33.3746 30.6341 33.3898 30.901 33.4216 31.1366C33.4529 31.3721 33.4923 31.5923 33.5393 31.7962C33.602 31.9846 33.6726 32.1849 33.7514 32.3969C33.8298 32.6089 33.9316 32.8249 34.0576 33.0447H31.3486C31.2543 32.8879 31.1601 32.6758 31.0659 32.4087C31.0028 32.1259 30.9558 31.8749 30.9245 31.6549C30.4535 32.1259 29.9153 32.5228 29.3108 32.8445C28.7061 33.1661 28.0582 33.3274 27.3674 33.3274C26.5506 33.3274 25.8323 33.1938 25.212 32.9269C24.5914 32.6601 24.0695 32.2909 23.6454 31.8199C23.2216 31.3487 22.9036 30.7874 22.6914 30.1355C22.4795 29.484 22.3734 28.7809 22.3734 28.0271V26.8964C22.3734 24.9021 22.8993 23.4022 23.9518 22.3971C25.0036 21.3922 26.535 20.8894 28.5452 20.8894C29.3146 20.8894 30.0683 21.0388 30.8068 21.337L30.8069 17.0968ZM30.8069 23.7162C30.4612 23.5123 30.0648 23.371 29.6172 23.2922C29.1697 23.2138 28.7492 23.1745 28.3569 23.1745C27.7287 23.1745 27.1986 23.261 26.7669 23.4335C26.3348 23.6066 25.9814 23.8498 25.7068 24.1638C25.4317 24.4781 25.2357 24.855 25.1177 25.2945C25 25.7343 24.9411 26.2133 24.9411 26.7315V27.6031C24.9411 28.0429 24.9724 28.471 25.0353 28.887C25.0979 29.3032 25.2198 29.6684 25.4005 29.9823C25.5807 30.2967 25.8282 30.5517 26.1424 30.7478C26.4564 30.9444 26.8646 31.0424 27.3674 31.0424C27.6973 31.0424 28.0229 30.9875 28.3451 30.8774C28.6668 30.7677 28.9771 30.6224 29.2757 30.4417C29.5738 30.2612 29.8528 30.0611 30.1118 29.8409C30.3709 29.6211 30.6026 29.3933 30.8069 29.1578V23.7162Z" fill="white"/>
<path d="M36.6486 19.8528C36.6486 19.4134 36.7075 18.9853 36.8254 18.569C36.9431 18.1531 37.1276 17.7839 37.3788 17.4618C37.6299 17.1402 37.9599 16.881 38.3682 16.6845C38.7764 16.4884 39.2633 16.39 39.8288 16.39C40.0957 16.39 40.3977 16.4176 40.7357 16.4725C41.0734 16.5277 41.3677 16.5943 41.6192 16.6728V18.6986H40.6768C40.1898 18.6986 39.8248 18.8322 39.5816 19.0991C39.3379 19.3663 39.2164 19.7351 39.2164 20.2063V21.1721H41.5015L40.8184 23.2922H39.2165V33.0447H36.6488V23.2922H35.1649V21.1721H36.6488V19.8528H36.6486Z" fill="white"/>
</svg>
