<svg width="170" height="53" viewBox="0 0 170 53" fill="none" xmlns="http://www.w3.org/2000/svg">
<rect x="1" y="1" width="51" height="51" rx="25.5" fill="white" stroke="#787880" stroke-opacity="0.2"/>
<path d="M26.4984 48.7097C38.7644 48.7097 48.708 38.7661 48.708 26.5C48.708 14.234 38.7644 4.29034 26.4984 4.29034C14.2323 4.29034 4.2887 14.234 4.2887 26.5C4.2887 38.7661 14.2323 48.7097 26.4984 48.7097Z" fill="url(#paint0_linear)"/>
<path d="M12.0777 27.4462C12.0777 27.4461 12.0778 27.4461 12.0779 27.446C14.6866 26.0205 17.5986 24.8306 20.3194 23.6347C25.0003 21.6759 29.6999 19.751 34.4468 17.9589C36.5372 17.2679 37.1577 19.8222 36.8411 22.0009C36.722 22.8201 36.5932 23.6384 36.4856 24.4568C35.8475 28.6589 35.1099 32.8467 34.3907 37.035C34.1428 38.4302 32.3813 39.1523 31.2542 38.2595C29.445 37.0471 27.6265 35.8426 25.8214 34.6228C24.0315 33.4134 22.1784 31.3631 23.8603 30.0074C25.4706 28.433 27.1512 27.0294 28.7568 25.5077C29.9943 24.3349 30.3404 22.903 28.901 23.8167C25.8467 25.9049 22.8672 28.1206 19.647 29.9558C18.0021 30.8541 16.085 30.0864 14.4409 29.5852C12.9668 28.9796 10.8066 28.3696 12.0775 27.4463C12.0776 27.4463 12.0776 27.4462 12.0777 27.4462Z" fill="white"/>
<path d="M62.8706 20.5881V17.5455H77.2058V20.5881H71.862V35H68.2143V20.5881H62.8706ZM83.2359 35.2557C81.895 35.2557 80.7387 34.983 79.7671 34.4375C78.7955 33.8864 78.0484 33.108 77.5256 32.1023C77.0029 31.0909 76.7415 29.8949 76.7415 28.5142C76.7415 27.1676 77.0029 25.9858 77.5256 24.9688C78.0484 23.9517 78.7842 23.1591 79.733 22.5909C80.6876 22.0227 81.8069 21.7386 83.091 21.7386C84.2444 21.7386 85.2842 21.983 86.2103 22.4716C87.1421 22.9602 87.8808 23.6989 88.4262 24.6875C88.9717 25.6705 89.2444 26.9034 89.2444 28.3864V29.3835H80.3296V29.392C80.3296 30.3693 80.5967 31.1392 81.1308 31.7017C81.6648 32.2642 82.3864 32.5455 83.2955 32.5455C83.9035 32.5455 84.429 32.4176 84.8722 32.1619C85.3154 31.9062 85.6279 31.5284 85.8097 31.0284L89.1677 31.25C88.912 32.4659 88.2643 33.4375 87.2245 34.1648C86.1847 34.892 84.8552 35.2557 83.2359 35.2557ZM80.3296 27.1335H85.8268C85.8211 26.3551 85.5711 25.7131 85.0768 25.2074C84.5825 24.7017 83.9404 24.4489 83.1506 24.4489C82.3438 24.4489 81.6819 24.7102 81.1648 25.233C80.6478 25.7557 80.3694 26.3892 80.3296 27.1335ZM94.9144 17.5455V35H91.2837V17.5455H94.9144ZM103.459 35.2557C102.118 35.2557 100.962 34.983 99.9899 34.4375C99.0183 33.8864 98.2712 33.108 97.7484 32.1023C97.2257 31.0909 96.9644 29.8949 96.9644 28.5142C96.9644 27.1676 97.2257 25.9858 97.7484 24.9688C98.2712 23.9517 99.007 23.1591 99.9558 22.5909C100.91 22.0227 102.03 21.7386 103.314 21.7386C104.467 21.7386 105.507 21.983 106.433 22.4716C107.365 22.9602 108.104 23.6989 108.649 24.6875C109.194 25.6705 109.467 26.9034 109.467 28.3864V29.3835H100.552V29.392C100.552 30.3693 100.819 31.1392 101.354 31.7017C101.888 32.2642 102.609 32.5455 103.518 32.5455C104.126 32.5455 104.652 32.4176 105.095 32.1619C105.538 31.9062 105.851 31.5284 106.033 31.0284L109.39 31.25C109.135 32.4659 108.487 33.4375 107.447 34.1648C106.408 34.892 105.078 35.2557 103.459 35.2557ZM100.552 27.1335H106.05C106.044 26.3551 105.794 25.7131 105.3 25.2074C104.805 24.7017 104.163 24.4489 103.373 24.4489C102.567 24.4489 101.905 24.7102 101.388 25.233C100.871 25.7557 100.592 26.3892 100.552 27.1335ZM117.404 40.0966C115.643 40.0966 114.259 39.75 113.254 39.0568C112.248 38.3636 111.637 37.5227 111.421 36.5341L114.779 36.0824C114.927 36.4347 115.214 36.7557 115.64 37.0455C116.072 37.3409 116.688 37.4886 117.489 37.4886C118.279 37.4886 118.93 37.3011 119.441 36.9261C119.958 36.5511 120.217 35.9347 120.217 35.0767V32.6818H120.063C119.825 33.2216 119.404 33.7131 118.802 34.1562C118.2 34.5938 117.376 34.8125 116.33 34.8125C115.347 34.8125 114.453 34.5824 113.646 34.1222C112.845 33.6619 112.205 32.9602 111.728 32.017C111.257 31.0739 111.021 29.8778 111.021 28.429C111.021 26.9403 111.262 25.7017 111.745 24.7131C112.234 23.7244 112.879 22.983 113.68 22.4886C114.487 21.9886 115.367 21.7386 116.322 21.7386C117.055 21.7386 117.668 21.8636 118.163 22.1136C118.657 22.358 119.058 22.6619 119.364 23.0256C119.671 23.3892 119.904 23.75 120.063 24.108H120.2V21.9091H123.805V35.1278C123.805 36.2131 123.529 37.125 122.978 37.8636C122.433 38.6023 121.68 39.1591 120.72 39.5341C119.759 39.9091 118.654 40.0966 117.404 40.0966ZM117.481 32.0852C118.356 32.0852 119.032 31.7614 119.509 31.1136C119.992 30.4659 120.234 29.5653 120.234 28.4119C120.234 27.2642 119.995 26.3466 119.518 25.6591C119.041 24.9716 118.362 24.6278 117.481 24.6278C116.583 24.6278 115.899 24.9801 115.427 25.6847C114.961 26.3892 114.728 27.2983 114.728 28.4119C114.728 29.5426 114.964 30.4375 115.435 31.0966C115.907 31.7557 116.589 32.0852 117.481 32.0852ZM126.364 35V21.9091H129.884V24.1932H130.02C130.259 23.3807 130.657 22.767 131.213 22.3523C131.776 21.9318 132.427 21.7216 133.165 21.7216C133.517 21.7216 133.844 21.7642 134.145 21.8494C134.446 21.9347 134.716 22.0511 134.955 22.1989L133.864 25.1989C133.694 25.1136 133.506 25.0426 133.302 24.9858C133.103 24.9233 132.878 24.892 132.628 24.892C131.895 24.892 131.273 25.142 130.762 25.642C130.256 26.142 130 26.7926 129.995 27.5938V35H126.364ZM139.681 35.2472C138.431 35.2472 137.394 34.9205 136.57 34.267C135.746 33.6136 135.334 32.6392 135.334 31.3438C135.334 30.3665 135.565 29.5994 136.025 29.0426C136.485 28.4858 137.087 28.0795 137.832 27.8239C138.582 27.5625 139.388 27.392 140.252 27.3125C141.388 27.1989 142.201 27.0795 142.69 26.9545C143.178 26.8295 143.423 26.5568 143.423 26.1364V26.0852C143.423 25.5455 143.252 25.1278 142.911 24.8324C142.576 24.5369 142.099 24.3892 141.479 24.3892C140.826 24.3892 140.306 24.5312 139.92 24.8153C139.533 25.0994 139.278 25.4602 139.153 25.8977L135.795 25.625C136.045 24.4318 136.664 23.4858 137.653 22.7869C138.647 22.0881 139.928 21.7386 141.496 21.7386C142.468 21.7386 143.377 21.892 144.224 22.1989C145.07 22.5057 145.752 22.9858 146.269 23.6392C146.792 24.2869 147.053 25.1307 147.053 26.1705V35H143.61V33.1847H143.508C143.19 33.7926 142.712 34.2898 142.076 34.6761C141.445 35.0568 140.647 35.2472 139.681 35.2472ZM140.721 32.7415C141.516 32.7415 142.17 32.5114 142.681 32.0511C143.192 31.5852 143.448 31.0085 143.448 30.321V28.9318C143.306 29.0284 143.084 29.1136 142.783 29.1875C142.488 29.2614 142.17 29.3267 141.829 29.3835C141.494 29.4347 141.192 29.4801 140.925 29.5199C140.289 29.6108 139.775 29.7898 139.383 30.0568C138.996 30.3239 138.803 30.7131 138.803 31.2244C138.803 31.7244 138.982 32.1023 139.34 32.358C139.704 32.6136 140.164 32.7415 140.721 32.7415ZM149.54 35V21.9091H153V24.2188H153.154C153.426 23.446 153.881 22.8409 154.517 22.4034C155.159 21.9602 155.921 21.7386 156.801 21.7386C157.699 21.7386 158.463 21.9631 159.094 22.4119C159.725 22.8551 160.145 23.4574 160.355 24.2188H160.492C160.759 23.4688 161.242 22.8693 161.941 22.4205C162.645 21.9659 163.477 21.7386 164.438 21.7386C165.659 21.7386 166.651 22.1278 167.412 22.9062C168.179 23.679 168.563 24.7756 168.563 26.196V35H164.941V26.9119C164.941 26.1847 164.747 25.6392 164.361 25.2756C163.975 24.9119 163.492 24.7301 162.912 24.7301C162.253 24.7301 161.739 24.9403 161.37 25.3608C161 25.7812 160.816 26.3295 160.816 27.0057V35H157.296V26.8352C157.296 26.1932 157.111 25.6818 156.742 25.3011C156.378 24.9205 155.898 24.7301 155.301 24.7301C154.699 24.7301 154.193 24.9517 153.784 25.3949C153.375 25.8324 153.171 26.4148 153.171 27.142V35H149.54Z" fill="white"/>
<defs>
<linearGradient id="paint0_linear" x1="20.2733" y1="-16.2726" x2="-10.0829" y2="32.8077" gradientUnits="userSpaceOnUse">
<stop stop-color="#34B0DF"/>
<stop offset="1" stop-color="#1E88D3"/>
</linearGradient>
</defs>
</svg>
