<svg width="191" height="167" viewBox="0 0 191 167" fill="none" xmlns="http://www.w3.org/2000/svg">
<path d="M2.10773 130.354C2.10801 130.353 2.1084 130.353 2.1089 130.352C18.0977 113.53 36.9028 97.7391 54.2727 82.3585C84.3914 56.6313 114.729 31.1123 145.736 6.46887C150.962 2.66063 160.164 -2.38237 165.528 2.20297C167.625 3.99553 168.32 6.87194 168.973 9.55212C172.209 22.8225 173.945 36.5042 176.387 49.9598C181.667 82.7469 186.173 115.664 190.817 148.541C192.303 159.513 180.933 169.083 170.426 165.125C147.43 158.495 124.335 152.024 101.457 145.084C98.546 144.201 95.4169 143.288 93.5923 140.854C89.5516 135.463 92.2274 126.757 95.7895 121.34C105.789 102.407 117.167 85.1099 126.73 66.1931C129.362 60.9875 130.678 51.3045 126.133 54.9611C123.4 57.1602 120.134 61.2928 118.489 63.2675C100.769 86.0816 83.9081 109.666 64.3515 130.993C54.2688 141.596 38.189 140.452 24.7737 140.639C12.3733 139.646 -5.13688 140.253 2.10702 130.355C2.10729 130.355 2.10755 130.355 2.10773 130.354Z" fill="white" fill-opacity="0.5"/>
</svg>
