<svg width="93" height="70" viewBox="0 0 93 70" fill="none" xmlns="http://www.w3.org/2000/svg">
<path d="M92.0277 63.1573C88.567 63.1573 85.7626 60.5116 85.7636 57.2478L85.7698 32.0453V27.9955C85.7698 24.1821 83.806 21.0902 81.3845 21.0902H80.7825C78.361 21.0902 74.3873 24.1821 74.3873 27.9955H55.2817V52.4212H43.1201V63.1573H92.0277Z" fill="#3130BD"/>
<path d="M63.4046 9.49536H15.3632C13.5308 9.49536 11.7735 10.223 10.4777 11.5182C9.18203 12.8133 8.4541 14.57 8.4541 16.4016V67.1896C8.4541 67.9348 8.75018 68.6494 9.27723 69.1765C9.80428 69.7035 10.5192 69.9997 11.2646 70H53.6839C54.4295 69.9997 55.1445 69.7035 55.6717 69.1765C56.1989 68.6495 56.4952 67.9349 56.4955 67.1896V16.4016C56.4955 14.57 57.2234 12.8133 58.5191 11.5182C59.8149 10.223 61.5722 9.49536 63.4046 9.49536Z" fill="white"/>
<path d="M15.9854 34.2651H49.3781" stroke="#EDEDED" stroke-miterlimit="10" stroke-linecap="round"/>
<path d="M15.9854 40.3568H49.3781" stroke="#EDEDED" stroke-miterlimit="10" stroke-linecap="round"/>
<path d="M15.9854 46.4484H49.3781" stroke="#EDEDED" stroke-miterlimit="10" stroke-linecap="round"/>
<path d="M15.9854 52.5399H49.3781" stroke="#EDEDED" stroke-miterlimit="10" stroke-linecap="round"/>
<path d="M15.9854 58.5088H38.1206" stroke="#EDEDED" stroke-miterlimit="10" stroke-linecap="round"/>
<path d="M15.9854 22.2059H49.3781" stroke="#EDEDED" stroke-miterlimit="10" stroke-linecap="round"/>
<path d="M15.9854 28.2971H49.3781" stroke="#EDEDED" stroke-miterlimit="10" stroke-linecap="round"/>
<path d="M15.9854 34.389H49.3781" stroke="#EDEDED" stroke-miterlimit="10" stroke-linecap="round"/>
<g opacity="0.64">
<path opacity="0.64" d="M6.96249 8.03811C6.95989 8.11269 6.93518 8.18483 6.89149 8.24536C6.84781 8.30588 6.78712 8.35207 6.71713 8.37806C6.64714 8.40405 6.57101 8.40867 6.49838 8.39133C6.42576 8.37399 6.35993 8.33547 6.30925 8.28067L3.04615 4.50821C2.97982 4.43466 2.94514 4.33797 2.9496 4.23905C2.95407 4.14013 2.99733 4.04694 3.07001 3.97967C3.1427 3.91239 3.23897 3.87644 3.33798 3.87958C3.43699 3.88273 3.53078 3.92473 3.59905 3.99648L6.86215 7.76689C6.89597 7.80323 6.92225 7.84591 6.93947 7.89246C6.9567 7.93901 6.96452 7.98852 6.96249 8.03811Z" fill="white" stroke="white" stroke-miterlimit="10"/>
<path opacity="0.64" d="M9.93362 2.79376L9.71144 6.53244C9.72094 6.63192 9.69052 6.7311 9.62687 6.80817C9.56322 6.88523 9.47155 6.93386 9.37202 6.94336C9.2725 6.95286 9.17328 6.92245 9.09619 6.85882C9.01909 6.7952 8.97044 6.70356 8.96094 6.60408L9.18312 2.8654C9.17612 2.81493 9.17942 2.76358 9.1928 2.71441C9.20618 2.66525 9.22937 2.61931 9.26099 2.57934C9.2926 2.53938 9.33197 2.50622 9.37674 2.48186C9.42151 2.45751 9.47075 2.44246 9.52149 2.43762C9.57223 2.43278 9.62342 2.43826 9.67199 2.45372C9.72055 2.46917 9.76549 2.4943 9.80409 2.52757C9.84269 2.56084 9.87415 2.60158 9.89659 2.64732C9.91903 2.69307 9.93197 2.74288 9.93465 2.79376H9.93362Z" fill="white" stroke="white" stroke-miterlimit="10"/>
<path opacity="0.64" d="M5.38732 10.7003C5.3597 10.7965 5.29501 10.8778 5.20747 10.9264C5.11993 10.9749 5.0167 10.9868 4.92043 10.9593L1.28464 10.8784C1.23579 10.8661 1.18991 10.8441 1.14971 10.8138C1.10951 10.7834 1.07581 10.7453 1.05059 10.7017C1.02538 10.6581 1.00917 10.6099 1.00291 10.56C0.996661 10.51 1.0005 10.4593 1.01419 10.4108C1.02788 10.3624 1.05116 10.3172 1.08264 10.2779C1.11413 10.2385 1.15318 10.2059 1.19748 10.182C1.24179 10.158 1.29045 10.1432 1.34059 10.1383C1.39074 10.1335 1.44134 10.1388 1.48941 10.1538L5.12521 10.2347C5.17309 10.2479 5.21789 10.2705 5.25701 10.3011C5.29614 10.3317 5.32882 10.3697 5.35318 10.413C5.37754 10.4563 5.3931 10.5039 5.39896 10.5533C5.40482 10.6026 5.40086 10.6526 5.38732 10.7003Z" fill="white" stroke="white" stroke-miterlimit="10"/>
</g>
<path d="M50.9709 38.9598L39.0684 42.4283L42.5403 30.3812L50.9709 38.9598Z" fill="#FF2950"/>
<path d="M80.9842 21.61C81.007 9.72084 71.3821 0.0642362 59.4862 0.0414073C47.5904 0.0185784 37.9284 9.63817 37.9056 21.5274C37.8828 33.4166 47.5077 43.0732 59.4035 43.096C71.2994 43.1189 80.9614 33.4993 80.9842 21.61Z" fill="#FF2950"/>
<path d="M59.7334 30.1538C60.2911 30.1538 60.8556 30.1757 61.4269 30.2193L61.8671 30.2562C62.258 30.2918 62.6239 30.4638 62.9006 30.7421C63.1773 31.0204 63.3472 31.3871 63.3804 31.7781V31.7914C63.45 32.5925 63.4121 33.3993 63.2678 34.1903L63.2617 34.2221C63.1966 34.5834 63.0141 34.9131 62.7426 35.1603C62.4711 35.4075 62.1256 35.5583 61.7596 35.5894C61.6071 35.6027 61.4525 35.615 61.3112 35.6252C60.7767 35.6621 60.2515 35.6815 59.7324 35.6815C59.2132 35.6815 58.687 35.6621 58.1546 35.6252C58.0071 35.615 57.8576 35.6027 57.7051 35.5894C57.3397 35.5581 56.9947 35.4076 56.7233 35.1611C56.4519 34.9146 56.2691 34.5857 56.203 34.2251C56.203 34.2149 56.203 34.2036 56.1979 34.1934C56.1275 33.8006 56.082 33.4037 56.0617 33.0052C56.0434 32.6015 56.0512 32.1971 56.0853 31.7944V31.7822C56.1183 31.391 56.2881 31.024 56.5648 30.7456C56.8415 30.4671 57.2075 30.2949 57.5986 30.2593L58.0389 30.2224C58.6102 30.1774 59.175 30.1545 59.7334 30.1538ZM55.0542 8.40951C55.0261 7.97283 55.1701 7.54249 55.4554 7.21061C55.7408 6.87874 56.1447 6.6717 56.5808 6.63382C56.8716 6.60721 57.1593 6.58776 57.444 6.57548C58.2529 6.53932 59.0167 6.52124 59.7354 6.52124C60.4542 6.52124 61.2091 6.53932 62.0003 6.57548C62.2972 6.58845 62.602 6.6096 62.9146 6.63894C63.3465 6.68082 63.7451 6.88944 64.0256 7.22045C64.3061 7.55147 64.4464 7.97878 64.4166 8.41156L63.2791 25.5422C63.2539 25.9325 63.0923 26.3017 62.8224 26.5849C62.5525 26.8682 62.1915 27.0476 61.8026 27.0917C61.6214 27.1111 61.4484 27.1285 61.2835 27.1418C60.7375 27.1882 60.2207 27.2111 59.7334 27.2104C59.0449 27.2037 58.3572 27.1603 57.6733 27.0804C57.2822 27.0374 56.9187 26.858 56.6468 26.5737C56.3749 26.2893 56.212 25.9183 56.1867 25.5258L55.0542 8.40951Z" fill="white"/>
</svg>
