<svg width="210" height="45" viewBox="0 0 210 45" fill="none" xmlns="http://www.w3.org/2000/svg">
<path d="M19.0542 13.0572C19.0542 11.3425 19.3905 9.64457 20.0439 8.0604C20.6972 6.47624 21.6549 5.03683 22.8622 3.82436C24.0694 2.61189 25.5027 1.6501 27.08 0.993918C28.6574 0.337734 30.348 0 32.0554 0C33.7627 0 35.4533 0.337734 37.0307 0.993918C38.6081 1.6501 40.0413 2.61189 41.2486 3.82436C42.4559 5.03683 43.4135 6.47624 44.0669 8.0604C44.7203 9.64457 45.0565 11.3425 45.0565 13.0572C45.0565 13.0871 45.0565 13.1171 45.0565 13.147L19.0542 13.1046C19.0542 13.0886 19.0542 13.074 19.0542 13.0572Z" fill="url(#paint0_linear)"/>
<path style="mix-blend-mode:multiply" opacity="0.69" d="M104.933 17.1583C162.832 17.1583 209.769 14.7888 209.769 11.8659C209.769 8.94297 162.832 6.57349 104.933 6.57349C47.0335 6.57349 0.0966797 8.94297 0.0966797 11.8659C0.0966797 14.7888 47.0335 17.1583 104.933 17.1583Z" fill="url(#paint1_radial)"/>
<path d="M187.341 13.0572C187.341 9.59419 185.971 6.27305 183.533 3.82436C181.095 1.37566 177.788 0 174.34 0C170.892 0 167.585 1.37566 165.147 3.82436C162.709 6.27305 161.339 9.59419 161.339 13.0572C161.339 13.0871 161.339 13.1171 161.339 13.147L187.338 13.1046C187.336 13.0886 187.341 13.074 187.341 13.0572Z" fill="url(#paint2_linear)"/>
<g opacity="0.75">
<g style="mix-blend-mode:multiply" opacity="0.01">
<path d="M103.439 7.67344L22.3706 7.57629L23.5466 8.05178C25.6084 8.88588 27.3349 9.95079 28.7668 11.1778C30.9704 13.063 32.4177 15.333 33.0882 17.7353C33.7114 19.9673 34.8911 23.8435 36.3041 26.7804C37.018 28.5018 37.8392 30.1762 38.763 31.7938C39.298 32.7367 39.9152 33.63 40.6073 34.4634C41.8698 36.125 43.4087 37.6318 45.4159 38.8326C47.8159 40.6709 49.9118 41.8169 52.815 42.6591C56.3968 43.9365 61.3414 44.8254 69.5419 44.8254C69.7776 44.8254 70.0052 44.8144 70.2256 44.8115C70.3805 44.8115 70.5332 44.8057 70.6816 44.8057H136.268C136.414 44.8057 136.57 44.8137 136.725 44.8115C136.943 44.8115 137.172 44.8254 137.409 44.8254C145.612 44.8254 150.556 43.9365 154.136 42.6591C157.039 41.8169 159.098 40.614 161.536 38.8326C163.543 37.6318 165.081 36.125 166.344 34.4634C167.036 33.6298 167.653 32.7365 168.188 31.7938C169.112 30.1763 169.933 28.5018 170.647 26.7804C172.06 23.8435 173.238 19.9673 173.86 17.7353C174.531 15.333 175.974 13.0608 178.177 11.1778C179.609 9.95225 181.325 8.88588 183.387 8.05178L184.542 7.57629L103.439 7.67344Z" fill="#FBFBFB"/>
</g>
<g style="mix-blend-mode:multiply" opacity="0.02">
<path d="M103.432 7.48435L22.6128 7.38647L23.7851 7.86269C25.8404 8.69679 27.5618 9.7617 28.9894 10.9895C31.1857 12.8761 32.6257 15.1469 33.2977 17.5498C33.9187 19.7826 35.0947 23.6603 36.5034 26.5986C37.2157 28.3206 38.0352 29.9957 38.9572 31.6142C39.4913 32.5573 40.1077 33.451 40.7993 34.2845C42.0582 35.9469 43.592 37.4544 45.5934 38.6552C47.9846 40.4928 50.0755 41.641 52.9699 42.4839C56.5408 43.7613 61.4701 44.6509 69.6481 44.6509C69.8838 44.6509 70.1107 44.6392 70.3296 44.6371C70.4845 44.6371 70.6365 44.6312 70.7848 44.6312H136.17C136.316 44.6312 136.471 44.6392 136.626 44.6371C136.844 44.6371 137.071 44.6509 137.306 44.6509C145.484 44.6509 150.414 43.7613 153.984 42.4839C156.879 41.641 158.93 40.4388 161.361 38.6552C163.362 37.4544 164.896 35.9469 166.155 34.2845C166.845 33.4508 167.46 32.5572 167.993 31.6142C168.914 29.9957 169.733 28.3205 170.445 26.5986C171.854 23.6603 173.028 19.7826 173.649 17.5498C174.317 15.1469 175.758 12.8753 177.952 10.9895C179.38 9.76389 181.09 8.69679 183.145 7.86269L184.297 7.38647L103.432 7.48435Z" fill="#F7F7F7"/>
</g>
<g style="mix-blend-mode:multiply" opacity="0.04">
<path d="M103.426 7.29441L22.8545 7.19727L24.0239 7.67348C26.0733 8.50758 27.7889 9.57249 29.2122 10.8017C31.4019 12.6891 32.8405 14.9606 33.5066 17.365C34.1262 19.5985 35.2986 23.4776 36.7029 26.4167C37.413 28.1388 38.2299 29.8144 39.1487 31.4338C39.6801 32.3779 40.2934 33.2732 40.9814 34.1092C42.2366 35.7716 43.766 37.2798 45.7609 38.4813C48.1449 40.3175 50.2299 41.4649 53.1149 42.3078C56.6749 43.5867 61.5889 44.4756 69.7422 44.4756C69.9764 44.4756 70.2026 44.4646 70.4215 44.4617C70.5756 44.4617 70.7276 44.4566 70.8753 44.4566H136.059C136.204 44.4566 136.358 44.4639 136.512 44.4617C136.731 44.4617 136.957 44.4756 137.192 44.4756C145.345 44.4756 150.259 43.5867 153.818 42.3078C156.704 41.4649 158.75 40.2627 161.172 38.4784C163.167 37.2769 164.697 35.7686 165.952 34.1063C166.639 33.2712 167.252 32.3769 167.784 31.4338C168.702 29.8145 169.519 28.1389 170.228 26.4167C171.633 23.4776 172.803 19.5985 173.422 17.365C174.088 14.9606 175.522 12.6905 177.713 10.8017C179.136 9.57541 180.84 8.50758 182.891 7.67348L184.039 7.19727L103.426 7.29441Z" fill="#F3F3F3"/>
</g>
<g style="mix-blend-mode:multiply" opacity="0.05">
<path d="M103.416 7.10521L23.0962 7.01172L24.2598 7.48793C26.3027 8.32277 28.0132 9.3906 29.4313 10.6176C31.6131 12.505 33.0487 14.7809 33.7134 17.1831C34.3301 19.4174 35.4988 23.2979 36.8995 26.2399C37.607 27.9626 38.4215 29.639 39.338 31.2592C39.8675 32.2025 40.4789 33.097 41.1649 33.9324C42.4165 35.5955 43.9408 37.1038 45.9299 38.306C48.3087 40.1407 50.3843 41.294 53.2614 42.1376C56.8096 43.4165 61.7092 44.3061 69.8363 44.3061C70.0704 44.3061 70.2959 44.2952 70.5133 44.2922C70.6675 44.2922 70.8188 44.2864 70.9657 44.2864H135.948C136.094 44.2864 136.247 44.2944 136.401 44.2922C136.619 44.2922 136.844 44.3061 137.078 44.3061C145.206 44.3061 150.104 43.4165 153.653 42.1376C156.53 41.294 158.57 40.0925 160.984 38.306C162.973 37.1038 164.497 35.5955 165.748 33.9324C166.434 33.097 167.046 32.2025 167.575 31.2592C168.491 29.6389 169.305 27.9626 170.012 26.2399C171.412 23.2994 172.579 19.4188 173.196 17.1831C173.86 14.7779 175.289 12.505 177.472 10.6176C178.891 9.3906 180.591 8.32277 182.636 7.48793L183.778 7.01172L103.416 7.10521Z" fill="#EFEFEF"/>
</g>
<g style="mix-blend-mode:multiply" opacity="0.06">
<path d="M103.411 6.91599L23.3398 6.81812L24.5035 7.29506C26.5398 8.12989 28.2452 9.19845 29.6597 10.4255C31.8357 12.3143 33.2654 14.5887 33.928 16.9939C34.5432 19.2289 35.7083 23.1116 37.1046 26.0507C37.8096 27.7739 38.6214 29.451 39.5351 31.0722C40.062 32.0153 40.6703 32.91 41.3533 33.7461C42.6005 35.4099 44.1168 36.9189 46.103 38.1219C48.476 39.9544 50.5443 41.1106 53.4119 41.9542C56.9493 43.2339 61.8336 44.1242 69.9359 44.1242C70.1686 44.1242 70.3934 44.1125 70.6108 44.1103C70.7643 44.1103 70.9148 44.1045 71.0617 44.1045H135.842C135.988 44.1045 136.14 44.1125 136.294 44.1103C136.512 44.1103 136.735 44.1242 136.969 44.1242C145.071 44.1242 149.955 43.2339 153.493 41.9542C156.36 41.1106 158.394 39.9091 160.801 38.1219C162.783 36.9189 164.303 35.4099 165.551 33.7461C166.234 32.9101 166.842 32.0153 167.369 31.0722C168.282 29.4509 169.093 27.7738 169.798 26.0507C171.194 23.1094 172.356 19.2267 172.971 16.9939C173.634 14.588 175.059 12.3143 177.235 10.4255C178.649 9.19845 180.344 8.12989 182.381 7.29506L183.522 6.81812L103.411 6.91599Z" fill="#EBEBEA"/>
</g>
<g style="mix-blend-mode:multiply" opacity="0.07">
<path d="M103.404 6.72617L23.5806 6.62903L24.7384 7.10597C26.7689 7.94154 28.4685 9.0101 29.8786 10.2379C32.048 12.1267 33.4734 14.4011 34.1338 16.8114C34.7469 19.0478 35.9083 22.9313 37.3003 25.874C38.0029 27.597 38.8122 29.2741 39.7235 30.8955C40.2499 31.8393 40.8584 32.7346 41.5416 33.5709C42.7845 35.2354 44.3001 36.7452 46.2768 37.9481C48.6433 39.7799 50.7036 40.9383 53.5625 41.7827C57.0896 43.0608 61.9557 43.9512 70.0348 43.9512C70.2675 43.9512 70.4915 43.9402 70.7083 43.9373C70.8603 43.9373 71.0115 43.9322 71.1577 43.9322H135.738C135.884 43.9322 136.035 43.9395 136.188 43.9373C136.406 43.9373 136.628 43.9512 136.861 43.9512C144.938 43.9512 149.806 43.0608 153.333 41.7812C156.191 40.9369 158.219 39.7361 160.619 37.9466C162.596 36.7437 164.11 35.234 165.353 33.5694C166.037 32.7331 166.645 31.8378 167.172 30.894C168.082 29.2721 168.891 27.5946 169.593 25.8711C170.985 22.9284 172.145 19.0449 172.758 16.8085C173.418 14.3982 174.838 12.1267 177.008 10.235C178.417 9.00718 180.107 7.93862 182.137 7.10305L183.269 6.62903L103.404 6.72617Z" fill="#E6E6E6"/>
</g>
<g style="mix-blend-mode:multiply" opacity="0.09">
<path d="M103.397 6.53696L23.8228 6.43982L24.9769 6.91676C27.0009 7.75233 28.6954 8.82089 30.1012 10.0494C32.2633 11.9396 33.6844 14.2126 34.3425 16.6229C34.9541 18.8601 36.1119 22.7458 37.4995 25.6892C38.2 27.413 39.0067 29.0912 39.9148 30.7143C40.439 31.6578 41.0447 32.5533 41.7249 33.3904C42.9612 35.0557 44.4754 36.5662 46.4455 37.7691C48.8069 39.5951 50.8593 40.7637 53.7087 41.6044C57.2242 42.8848 62.0779 43.7759 70.1301 43.7759C70.3614 43.7759 70.5847 43.7649 70.8006 43.762C70.9526 43.762 71.1032 43.7561 71.2486 43.7561H135.627C135.772 43.7561 135.923 43.7642 136.075 43.762C136.293 43.762 136.511 43.7759 136.745 43.7759C144.798 43.7759 149.651 42.8848 153.167 41.6044C156.016 40.7601 158.039 39.5593 160.43 37.7691C162.4 36.5662 163.91 35.0557 165.15 33.3904C165.83 32.5535 166.436 31.658 166.959 30.7143C167.867 29.0914 168.674 27.4131 169.374 25.6892C170.761 22.7458 171.919 18.8601 172.528 16.6229C173.186 14.2126 174.602 11.9396 176.764 10.0494C178.17 8.82089 179.854 7.75233 181.878 6.91676L183.012 6.43982L103.397 6.53696Z" fill="#E2E2E2"/>
</g>
<g style="mix-blend-mode:multiply" opacity="0.1">
<path d="M103.39 6.34775L24.0645 6.25061L25.2157 6.72755C27.2331 7.56312 28.9247 8.63241 30.324 9.86165C32.4795 11.7526 33.8962 14.0249 34.5522 16.4352C35.1617 18.6731 36.3158 22.5602 37.6991 25.5051C38.3973 27.2293 39.2015 28.9083 40.107 30.5324C40.6292 31.4761 41.233 32.3718 41.9113 33.2093C43.1477 34.8753 44.6531 36.3865 46.6167 37.5916C48.9715 39.4176 51.0159 40.5862 53.8565 41.4291C57.3619 42.7109 62.2004 43.6042 70.2271 43.6042C70.4584 43.6042 70.6809 43.5932 70.8962 43.5903C71.0474 43.5903 71.1972 43.5844 71.3427 43.5844H135.519C135.664 43.5844 135.814 43.5925 135.966 43.5903C136.184 43.5903 136.402 43.6042 136.634 43.6042C144.661 43.6042 149.5 42.7131 153.004 41.432C155.845 40.5869 157.859 39.3869 160.245 37.5945C162.208 36.3908 163.715 34.8797 164.95 33.2122C165.628 32.3747 166.232 31.479 166.754 30.5353C167.659 28.911 168.463 27.2317 169.16 25.5073C170.542 22.5624 171.695 18.6753 172.305 16.4373C172.959 14.0271 174.372 11.7526 176.528 9.86384C177.929 8.6346 179.608 7.56531 181.626 6.72975L182.76 6.25061L103.39 6.34775Z" fill="#DEDEDE"/>
</g>
<g style="mix-blend-mode:multiply" opacity="0.11">
<path d="M103.383 6.15866L24.3066 6.06225L25.4543 6.53773C27.4651 7.37476 29.1494 8.44405 30.5451 9.67402C32.6941 11.565 34.1086 13.8424 34.7631 16.2519C35.3711 18.4913 36.5217 22.3791 37.9005 25.3255C38.5962 27.0502 39.3977 28.7299 40.3005 30.355C40.8213 31.2985 41.4233 32.1945 42.0997 33.0326C43.3317 34.6993 44.8327 36.2112 46.7905 37.4149C49.1396 39.2409 51.1766 40.4095 54.0078 41.2531C57.4986 42.535 62.3247 43.4268 70.3267 43.4268C70.5566 43.4268 70.7791 43.4151 70.9929 43.4121C71.1442 43.4121 71.294 43.407 71.4387 43.407H135.413C135.559 43.407 135.704 43.4143 135.858 43.4121C136.077 43.4121 136.295 43.4268 136.525 43.4268C144.525 43.4268 149.35 42.535 152.843 41.2531C155.675 40.4081 157.683 39.2044 160.061 37.4149C162.019 36.2112 163.52 34.6993 164.752 33.0326C165.428 32.1945 166.03 31.2985 166.55 30.355C167.453 28.73 168.254 27.0502 168.95 25.3255C170.332 22.3791 171.477 18.4913 172.085 16.2519C172.739 13.8416 174.146 11.565 176.295 9.67402C177.805 8.35499 179.522 7.29533 181.377 6.53773L182.504 6.06079L103.383 6.15866Z" fill="#DADADA"/>
</g>
<g style="mix-blend-mode:multiply" opacity="0.12">
<path d="M103.376 5.96872L24.5488 5.87158L25.6928 6.34853C27.6971 7.18555 29.3764 8.25557 30.7683 9.4892C32.9108 11.3816 34.3181 13.6597 34.9704 16.0707C35.5762 18.3101 36.7231 22.2002 38.0976 25.1473C38.7909 26.8723 39.59 28.5525 40.4903 30.1782C41.0089 31.1222 41.609 32.0187 42.2837 32.8573C43.5113 34.5247 45.0073 36.0366 46.9592 37.2396C49.3025 39.0656 51.3315 40.2342 54.1547 41.08C57.6376 42.3618 62.4455 43.2536 70.4213 43.2536C70.6511 43.2536 70.8722 43.2427 71.086 43.2397C71.2365 43.2397 71.3856 43.2339 71.5303 43.2339H135.303C135.448 43.2339 135.594 43.2419 135.747 43.2397C135.961 43.2397 136.183 43.2536 136.412 43.2536C144.388 43.2536 149.196 42.3618 152.678 41.08C155.502 40.2342 157.503 39.0305 159.873 37.2396C161.825 36.0345 163.321 34.5226 164.549 32.8573C165.223 32.0186 165.823 31.1222 166.341 30.1782C167.241 28.5525 168.04 26.8723 168.733 25.1473C170.108 22.2002 171.252 18.3101 171.861 16.0707C172.515 13.6605 173.915 11.3816 176.058 9.4892C177.563 8.17034 179.274 7.11038 181.124 6.35218L182.246 5.87523L103.376 5.96872Z" fill="#D6D6D6"/>
</g>
<g style="mix-blend-mode:multiply" opacity="0.14">
<path d="M103.369 5.77963L24.791 5.68249L25.9306 6.15943C27.9269 6.99719 29.5996 8.06721 30.9909 9.29792C33.1261 11.1911 34.5297 13.4699 35.1792 15.8816C35.7835 18.1217 36.9246 22.0133 38.2969 24.9618C38.9878 26.6873 39.7842 28.3682 40.6816 29.995C41.1996 30.9391 41.7987 31.836 42.4721 32.6755C43.6961 34.343 45.1877 35.8556 47.1338 37.0578C49.4712 38.8838 51.4915 40.0524 54.306 40.9004C57.7779 42.1822 62.5706 43.0748 70.5238 43.0748C70.7522 43.0748 70.9733 43.0638 71.1864 43.0609C71.3362 43.0609 71.4845 43.055 71.6285 43.055H135.197C135.343 43.055 135.488 43.0631 135.64 43.0609C135.853 43.0609 136.077 43.0748 136.302 43.0748C144.254 43.0748 149.046 42.1822 152.52 40.9004C155.334 40.0539 157.33 38.8495 159.692 37.0578C161.637 35.8527 163.129 34.34 164.353 32.6755C165.025 31.8361 165.623 30.9391 166.14 29.995C167.037 28.3682 167.833 26.6873 168.524 24.9618C169.894 22.0133 171.035 18.1217 171.639 15.8816C172.289 13.4714 173.687 11.1911 175.822 9.29792C177.321 7.97852 179.028 6.91731 180.872 6.15724L181.992 5.6803L103.369 5.77963Z" fill="#D2D2D2"/>
</g>
<g style="mix-blend-mode:multiply" opacity="0.15">
<path d="M103.362 5.59042L25.0361 5.49255L26.1721 5.97022C28.1648 6.80798 29.8324 7.87873 31.2164 9.1109C33.345 11.0048 34.7436 13.2851 35.3915 15.6975C35.9937 17.9391 37.1333 21.8328 38.4991 24.7814C39.1864 26.5067 39.9789 28.1879 40.8721 29.8152C41.3874 30.7593 41.9835 31.6564 42.6539 32.4965C43.8743 34.1647 45.3608 35.6781 47.3004 36.8839C49.632 38.7099 51.645 39.8785 54.45 40.7272C57.9125 42.0098 62.6898 42.9031 70.617 42.9031C70.8453 42.9031 71.0649 42.8914 71.2773 42.8885C71.4271 42.8885 71.5747 42.8834 71.7187 42.8834H135.089C135.234 42.8834 135.38 42.8914 135.53 42.8885C135.742 42.8885 135.966 42.9031 136.19 42.9031C144.117 42.9031 148.894 42.0098 152.354 40.7272C155.16 39.8807 157.149 38.6756 159.504 36.8839C161.443 35.6781 162.93 34.1647 164.15 32.4965C164.82 31.6564 165.416 30.7593 165.931 29.8152C166.826 28.1875 167.619 26.5058 168.307 24.7799C169.673 21.8306 170.81 17.9376 171.413 15.6961C172.061 13.2858 173.454 11.0033 175.583 9.10944C177.076 7.79032 178.777 6.72904 180.617 5.96876L181.733 5.49109L103.362 5.59042Z" fill="#CECECE"/>
</g>
<g style="mix-blend-mode:multiply" opacity="0.16">
<path d="M103.355 5.40486L25.2744 5.30334L26.4075 5.78101C28.3936 6.61877 30.0561 7.69025 31.435 8.92168C33.5571 10.8163 34.9513 13.0966 35.5971 15.5105C36.1971 17.7528 37.3338 21.6458 38.6952 24.598C39.3812 26.3252 40.1725 28.0083 41.0646 29.6377C41.5781 30.5821 42.1726 31.4797 42.8413 32.3204C44.0573 33.9894 45.5394 35.5035 47.4732 36.7093C49.8004 38.5309 51.8033 39.7083 54.6003 40.5548C58.0497 41.8352 62.8118 42.7277 70.7127 42.7277C70.9396 42.7277 71.1592 42.7168 71.3672 42.7139C71.5127 42.7139 71.664 42.708 71.8036 42.708H134.979C135.124 42.708 135.27 42.7161 135.415 42.7139C135.627 42.7139 135.847 42.7277 136.07 42.7277C143.971 42.7277 148.733 41.8352 152.182 40.5519C154.979 39.7054 156.962 38.4995 159.309 36.7064C161.242 35.5005 162.727 33.9864 163.94 32.3175C164.609 31.4768 165.203 30.5792 165.716 29.6348C166.608 28.0052 167.399 26.3221 168.085 24.5951C169.447 21.6443 170.58 17.7499 171.18 15.5076C171.826 13.0937 173.216 10.8134 175.337 8.91876C176.825 7.60017 178.52 6.53885 180.355 5.77809L181.467 5.30042L103.355 5.40486Z" fill="#CACAC9"/>
</g>
<g style="mix-blend-mode:multiply" opacity="0.17">
<path d="M103.348 5.21127L25.5166 5.11267L26.646 5.59035C28.6256 6.42883 30.2823 7.50031 31.6576 8.73102C33.7731 10.6256 35.1629 12.9074 35.8066 15.3221C36.4044 17.5651 37.5374 21.461 38.8945 24.4132C39.5783 26.1401 40.3672 27.8232 41.2566 29.4529C41.768 30.3976 42.3606 31.2958 43.0275 32.1371C44.2398 33.8067 45.7183 35.3216 47.6441 36.5282C49.9641 38.3483 51.9611 39.5279 54.748 40.3744C58.1872 41.6584 62.934 42.5517 70.8094 42.5517C71.0363 42.5517 71.2545 42.5407 71.464 42.5378C71.6131 42.5378 71.76 42.532 71.9003 42.532H134.868C135.013 42.532 135.159 42.54 135.304 42.5378C135.515 42.5378 135.733 42.5517 135.959 42.5517C143.834 42.5517 148.581 41.6584 152.02 40.3744C154.807 39.5279 156.784 38.3213 159.124 36.5282C161.05 35.3216 162.527 33.8067 163.74 32.1371C164.407 31.296 164.999 30.3981 165.51 29.4536C166.399 27.8239 167.188 26.1408 167.871 24.4139C169.228 21.4617 170.359 17.5658 170.956 15.3228C171.601 12.9081 172.985 10.6264 175.102 8.73175C176.584 7.41362 178.275 6.35225 180.104 5.59108L181.219 5.11267L103.348 5.21127Z" fill="#C6C6C5"/>
</g>
<g style="mix-blend-mode:multiply" opacity="0.19">
<path d="M103.343 5.02219L25.7588 4.92432L26.8846 5.40491C28.8576 6.2434 30.51 7.31561 31.8801 8.54559C33.9892 10.4446 35.3709 12.7241 36.0153 15.1395C36.6116 17.384 37.7403 21.2814 39.0938 24.2343C39.7756 25.9609 40.562 27.644 41.4486 29.274C41.9582 30.2184 42.5486 31.1165 43.213 31.9582C44.4217 33.6286 45.8943 35.1442 47.815 36.3508C50.1284 38.1702 52.1175 39.3519 54.8963 40.1992C58.3261 41.4861 63.0532 42.3787 70.9076 42.3787C71.1331 42.3787 71.3512 42.367 71.5621 42.3641C71.7076 42.3641 71.8531 42.3589 71.9985 42.3589H134.761C134.906 42.3589 135.052 42.367 135.197 42.3641C135.408 42.3641 135.625 42.3787 135.852 42.3787C143.702 42.3787 148.433 41.4847 151.861 40.2006C154.64 39.3534 156.61 38.1468 158.942 36.3522C160.863 35.1456 162.335 33.6301 163.544 31.9597C164.208 31.1178 164.799 30.2197 165.308 29.2755C166.195 27.6454 166.981 25.9624 167.662 24.2358C169.015 21.2828 170.141 17.3855 170.737 15.141C171.379 12.7256 172.759 10.4431 174.868 8.54705C176.345 7.22953 178.03 6.16813 179.854 5.40637L180.96 4.92797L103.343 5.02219Z" fill="#C2C2C1"/>
</g>
<g style="mix-blend-mode:multiply" opacity="0.2">
<path d="M103.334 4.83298L26.001 4.73511L27.1224 5.21351C29.0896 6.05273 30.7369 7.12494 32.1027 8.35784C34.2044 10.2568 35.5848 12.5379 36.2248 14.954C36.8189 17.1992 37.944 21.098 39.2923 24.0524C39.9724 25.7786 40.7564 27.4616 41.6399 29.0921C42.1476 30.0369 42.7363 30.9355 43.3991 31.7778C44.6042 33.4489 46.0718 34.9644 47.9867 36.1725C50.2943 37.9897 52.2775 39.1744 55.0454 40.0217C58.4635 41.3064 63.1784 42.2004 71.0036 42.2004C71.2291 42.2004 71.4458 42.1895 71.6582 42.1865C71.8036 42.1865 71.9491 42.1814 72.0945 42.1814H134.658C134.804 42.1814 134.949 42.1887 135.095 42.1865C135.304 42.1865 135.521 42.2004 135.749 42.2004C143.574 42.2004 148.291 41.3064 151.708 40.0217C154.477 39.1744 156.441 37.9671 158.762 36.1725C160.677 34.9644 162.145 33.4489 163.35 31.7778C164.012 30.9353 164.601 30.0367 165.109 29.0921C165.992 27.4616 166.775 25.7786 167.455 24.0524C168.803 21.098 169.927 17.1992 170.52 14.954C171.159 12.5379 172.535 10.2547 174.637 8.35784C176.108 7.03949 177.788 5.97681 179.607 5.21351L180.709 4.73511L103.334 4.83298Z" fill="#BDBDBD"/>
</g>
<g style="mix-blend-mode:multiply" opacity="0.21">
<path d="M103.327 4.64377L26.2432 4.5459L27.361 5.0243C29.1783 5.78853 30.856 6.8517 32.3252 8.17009C34.4197 10.0691 35.7964 12.3516 36.4335 14.7692C37.0262 17.0151 38.1476 20.9154 39.488 23.8705C40.1653 25.5983 40.9469 27.283 41.8283 28.9153C42.3342 29.8601 42.9209 30.7589 43.5817 31.6017C44.7824 33.2736 46.2456 34.7898 48.154 35.9979C50.4594 37.8144 52.4353 39.0027 55.1938 39.8493C58.5995 41.1347 63.3005 42.0287 71.1011 42.0287C71.3251 42.0287 71.5418 42.0178 71.7505 42.0149C71.896 42.0149 72.0414 42.009 72.1869 42.009H134.55C134.691 42.009 134.836 42.017 134.986 42.0149C135.195 42.0149 135.412 42.0287 135.636 42.0287C143.436 42.0287 148.137 41.1347 151.543 39.8493C154.307 39.0013 156.261 37.7939 158.578 35.9979C160.488 34.7898 161.95 33.2736 163.151 31.6017C163.811 30.7587 164.398 29.8599 164.904 28.9153C165.785 27.283 166.566 25.5983 167.242 23.8705C168.586 20.9154 169.705 17.0151 170.297 14.7692C170.934 12.3516 172.305 10.0669 174.401 8.17009C175.866 6.85161 177.54 5.78836 179.354 5.0243L180.453 4.5459L103.327 4.64377Z" fill="#B9B9B9"/>
</g>
<g style="mix-blend-mode:multiply" opacity="0.22">
<path d="M103.32 4.4554L26.4849 4.35607L27.5997 4.83521C29.4111 5.60028 31.0825 6.66374 32.5451 7.98172C34.6338 9.88073 36.0054 12.1654 36.641 14.5837C37.2315 16.8304 38.3493 20.7321 39.6889 23.6887C40.3641 25.4169 41.143 27.1023 42.0212 28.7357C42.5247 29.6804 43.1087 30.5795 43.7667 31.4228C44.963 33.0954 46.4219 34.6124 48.3244 35.8212C50.6203 37.6355 52.5854 38.8253 55.3373 39.6733C58.7372 40.9595 63.4237 41.8513 71.1988 41.8513C71.4228 41.8513 71.6351 41.8396 71.8468 41.8375C71.9922 41.8375 72.1377 41.8316 72.2831 41.8316H134.444C134.585 41.8316 134.73 41.8396 134.88 41.8375C135.089 41.8375 135.304 41.8513 135.528 41.8513C143.303 41.8513 147.989 40.9566 151.382 39.6704C154.134 38.8224 156.086 37.6143 158.395 35.8183C160.298 34.6095 161.756 33.0925 162.953 31.4199C163.611 30.5764 164.195 29.6773 164.699 28.7328C165.577 27.0995 166.355 25.414 167.029 23.6858C168.37 20.7292 169.485 16.8275 170.075 14.5808C170.711 12.1625 172.078 9.87708 174.166 7.9788C175.626 6.66073 177.295 5.59721 179.104 4.83229L180.199 4.35315L103.32 4.4554Z" fill="#B5B5B5"/>
</g>
<g style="mix-blend-mode:multiply" opacity="0.24">
<path d="M103.313 4.26474L26.7266 4.16687L27.8378 4.64601C29.6449 5.41191 31.3117 6.47591 32.7693 7.79398C34.8507 9.69299 36.218 11.9784 36.8514 14.3982C37.4405 16.6456 38.5547 20.5495 39.8899 23.5068C40.5632 25.2354 41.3404 26.9213 42.2171 28.5553C42.7194 29.5005 43.3022 30.4003 43.9589 31.2446C45.1523 32.9172 46.6061 34.4349 48.5021 35.6437C50.7922 37.4573 52.75 38.6493 55.4925 39.498C58.8764 40.7842 63.5476 41.6789 71.2972 41.6789C71.5198 41.6789 71.7336 41.668 71.9423 41.665C72.0878 41.665 72.2332 41.6599 72.3743 41.6599H134.337C134.477 41.6599 134.622 41.6672 134.768 41.665C134.975 41.665 135.19 41.6789 135.414 41.6789C143.163 41.6789 147.834 40.7842 151.218 39.498C153.96 38.6493 155.906 37.4405 158.208 35.6437C160.104 34.4349 161.558 32.9172 162.751 31.2446C163.405 30.401 163.986 29.5022 164.487 28.5582C165.363 26.9242 166.139 25.2382 166.811 23.5098C168.146 20.5524 169.258 16.6485 169.846 14.4011C170.48 11.9813 171.843 9.69592 173.924 7.7969C175.378 6.47891 177.041 5.41486 178.845 4.64893L179.936 4.16979L103.313 4.26474Z" fill="#B1B1B1"/>
</g>
<g style="mix-blend-mode:multiply" opacity="0.25">
<path d="M103.306 4.07553L26.9692 3.97766L28.0769 4.45533C29.8789 5.22192 31.5404 6.28622 32.9924 7.60404C35.0672 9.50305 36.4301 11.7906 37.065 14.2111C37.6519 16.46 38.7624 20.3647 40.0933 23.3235C40.7625 25.0527 41.535 26.7398 42.4067 28.3756C42.9082 29.3206 43.4898 30.2206 44.1449 31.0656C45.3339 32.7389 46.7834 34.2574 48.6735 35.4669C50.9571 37.2783 52.9069 38.4732 55.6406 39.3219C59.0136 40.6089 63.6695 41.5043 71.3937 41.5043C71.6163 41.5043 71.8301 41.4934 72.0373 41.4904C72.1828 41.4904 72.3282 41.4846 72.4671 41.4846H134.225C134.365 41.4846 134.509 41.4926 134.656 41.4904C134.862 41.4904 135.077 41.5043 135.299 41.5043C143.023 41.5043 147.679 40.6089 151.052 39.3219C153.785 38.4732 155.724 37.2644 158.019 35.4669C159.91 34.2574 161.358 32.7389 162.547 31.0656C163.202 30.2206 163.783 29.3206 164.283 28.3756C165.156 26.7404 165.929 25.0538 166.599 23.3249C167.93 20.3661 169.038 16.4593 169.625 14.2126C170.256 11.7921 171.615 9.50524 173.689 7.6055C175.137 6.28732 176.795 5.22248 178.594 4.45533L179.684 3.9762L103.306 4.07553Z" fill="#ADADAD"/>
</g>
<g style="mix-blend-mode:multiply" opacity="0.26">
<path d="M103.298 3.88571L27.2114 3.78783L28.3154 4.2677C30.1125 5.03509 31.7687 6.09994 33.2149 7.41787C35.2825 9.31688 36.641 11.6059 37.2708 14.0272C37.8526 16.2768 38.9624 20.1829 40.289 23.1431C40.9569 24.8716 41.7282 26.558 42.5987 28.1931C43.0975 29.1383 43.6766 30.0386 44.3296 30.8838C45.515 32.5579 46.9586 34.0771 48.843 35.2866C51.1214 37.0972 53.061 38.2943 55.7883 39.1438C59.1496 40.4307 63.7881 41.3269 71.4897 41.3269C71.7079 41.3269 71.9261 41.3152 72.1312 41.313C72.2766 41.313 72.4221 41.3072 72.5595 41.3072H134.116C134.256 41.3072 134.399 41.3152 134.544 41.313C134.751 41.313 134.965 41.3269 135.186 41.3269C142.885 41.3269 147.526 40.4307 150.887 39.1438C153.612 38.2943 155.542 37.0848 157.833 35.2866C159.717 34.0771 161.161 32.5579 162.346 30.8838C162.999 30.0384 163.578 29.1382 164.077 28.1931C164.946 26.5569 165.717 24.8695 166.384 23.1402C167.712 20.18 168.816 16.2746 169.401 14.0242C170.03 11.603 171.384 9.31542 173.452 7.41495C174.894 6.09704 176.547 5.03213 178.341 4.26478L179.426 3.78491L103.298 3.88571Z" fill="#A9A9A8"/>
</g>
<g style="mix-blend-mode:multiply" opacity="0.27">
<path d="M103.292 3.6965L27.4536 3.59863L28.5532 4.0785C30.3455 4.84691 31.9964 5.91256 33.4368 7.23086C35.4978 9.12987 36.8549 11.4204 37.4796 13.8423C38.0614 16.0927 39.1661 20.001 40.4882 22.962C41.1537 24.6916 41.9224 26.3794 42.79 28.0163C43.2871 28.9619 43.8645 29.8626 44.5158 30.7085C45.6968 32.3833 47.1339 33.9025 49.0139 35.1135C51.2858 36.9226 53.2196 38.1219 55.9359 38.9714C59.2864 40.2598 63.9117 41.156 71.5857 41.156C71.8039 41.156 72.0221 41.1443 72.225 41.1414C72.3704 41.1414 72.5159 41.1362 72.6526 41.1362H134.008C134.147 41.1362 134.289 41.1436 134.435 41.1414C134.64 41.1414 134.853 41.156 135.074 41.156C142.748 41.156 147.373 40.2598 150.724 38.9714C153.44 38.1219 155.366 36.9124 157.646 35.1135C159.523 33.9025 160.963 32.3833 162.144 30.7085C162.795 29.8624 163.372 28.9617 163.869 28.0163C164.736 26.3796 165.505 24.6917 166.17 22.962C167.492 20.001 168.593 16.0927 169.176 13.8423C169.803 11.4204 171.152 9.13133 173.213 7.23086C174.65 5.91322 176.297 4.8478 178.086 4.07923L179.167 3.59936L103.292 3.6965Z" fill="#A5A5A4"/>
</g>
<g style="mix-blend-mode:multiply" opacity="0.29">
<path d="M103.284 3.50584L27.6948 3.40942L28.7915 3.88929C30.5787 4.65834 32.2242 5.72401 33.6591 7.04165C35.7136 8.94066 37.0633 11.2334 37.6888 13.6561C38.2706 15.9078 39.3695 19.8169 40.6873 22.7793C41.3504 24.5094 42.1164 26.1979 42.981 27.8358C43.4765 28.7818 44.0519 29.6832 44.701 30.5302C45.8784 32.2057 47.3133 33.7257 49.1853 34.9367C51.4514 36.7444 53.3779 37.9466 56.0848 38.7968C59.4243 40.0852 64.0344 40.9814 71.6837 40.9814C71.9019 40.9814 72.1157 40.9704 72.3208 40.9675C72.4662 40.9675 72.6117 40.9617 72.7462 40.9617H133.9C134.039 40.9617 134.181 40.9697 134.326 40.9675C134.53 40.9675 134.743 40.9814 134.963 40.9814C142.612 40.9814 147.222 40.0852 150.562 38.7968C153.269 37.9466 155.188 36.7363 157.461 34.9367C159.333 33.7257 160.767 32.2057 161.944 30.5302C162.593 29.6838 163.168 28.7828 163.663 27.8373C164.529 26.199 165.296 24.51 165.96 22.7793C167.278 19.8169 168.375 15.9078 168.956 13.6561C169.582 11.2334 170.927 8.94358 172.981 7.04165C174.412 5.72425 176.055 4.65854 177.838 3.88929L178.916 3.40942L103.284 3.50584Z" fill="#A1A1A0"/>
</g>
<g style="mix-blend-mode:multiply" opacity="0.3">
<path d="M103.277 3.31821L27.937 3.2196L29.0279 3.7002C30.81 4.47032 32.4501 5.53652 33.8794 6.85402C35.9267 8.75668 37.2721 11.0472 37.8953 13.4713C38.4771 15.7231 39.568 19.6344 40.8844 22.6012C41.5456 24.3317 42.3091 26.0209 43.1709 27.6599C43.6645 28.6053 44.238 29.5065 44.885 30.3536C46.0588 32.0335 47.4886 33.5505 49.354 34.7622C51.615 36.5684 53.5328 37.7728 56.2309 38.623C59.5625 39.9085 64.1573 40.8054 71.7804 40.8054C71.9986 40.8054 72.2117 40.7937 72.416 40.7915C72.5615 40.7915 72.7019 40.7857 72.84 40.7857H133.792C133.93 40.7857 134.072 40.7937 134.216 40.7915C134.421 40.7915 134.632 40.8054 134.852 40.8054C142.475 40.8054 147.07 39.9085 150.399 38.6194C153.097 37.7692 155.01 36.5589 157.275 34.7585C159.141 33.5468 160.57 32.0261 161.744 30.3499C162.391 29.5027 162.964 28.6015 163.458 27.6562C164.319 26.0173 165.082 24.3281 165.742 22.5976C167.055 19.6344 168.149 15.7231 168.728 13.4713C169.351 11.0472 170.692 8.75668 172.739 6.85402C174.165 5.5366 175.802 4.47035 177.581 3.7002L178.654 3.2196L103.277 3.31821Z" fill="#9D9D9C"/>
</g>
<g style="mix-blend-mode:multiply" opacity="0.31">
<path d="M103.271 3.12827L28.1792 3.0304L29.2701 3.51026C31.047 4.28173 32.6817 5.34843 34.1056 6.66554C36.1463 8.56894 37.4874 10.8609 38.1055 13.2858C38.6822 15.5383 39.7782 19.451 41.0873 22.4157C41.7459 24.1467 42.507 25.8367 43.3665 27.4765C43.8582 28.4221 44.4297 29.3235 45.0748 30.1709C46.2443 31.8508 47.6697 33.3693 49.5293 34.581C51.7838 36.3822 53.6943 37.5931 56.383 38.444C59.7007 39.7332 64.281 40.6308 71.8793 40.6308C72.0975 40.6308 72.3084 40.6191 72.5121 40.6162C72.6575 40.6162 72.7971 40.6111 72.9353 40.6111H133.685C133.823 40.6111 133.965 40.6184 134.109 40.6162C134.312 40.6162 134.523 40.6308 134.741 40.6308C142.34 40.6308 146.92 39.7332 150.238 38.444C152.928 37.5931 154.834 36.3822 157.091 34.581C158.95 33.3693 160.376 31.8479 161.545 30.1709C162.19 29.3235 162.761 28.4221 163.253 27.4765C164.112 25.8367 164.873 24.1467 165.531 22.4157C166.84 19.451 167.931 15.5383 168.508 13.2858C169.129 10.8609 170.465 8.56894 172.508 6.66554C173.928 5.34832 175.56 4.28154 177.334 3.51026L178.404 3.0304L103.271 3.12827Z" fill="#999998"/>
</g>
<g style="mix-blend-mode:multiply" opacity="0.32">
<path d="M103.263 2.93906L28.4214 2.84119L29.5072 3.32105C31.2792 4.09333 32.9086 5.16058 34.3267 6.47779C36.363 8.38192 37.6968 10.6739 38.3157 13.1002C38.891 15.3542 39.9797 19.2676 41.2851 22.2337C41.9411 23.9651 42.6995 25.6556 43.5563 27.2961C44.0464 28.2419 44.6162 29.1438 45.2596 29.9919C46.4232 31.6718 47.8457 33.1918 49.6958 34.4035C51.946 36.2046 53.847 37.4171 56.527 38.2672C59.8338 39.5571 64.3988 40.4548 71.9717 40.4548C72.1899 40.4548 72.4001 40.4438 72.603 40.4409C72.7484 40.4409 72.8873 40.435 73.0241 40.435H133.573C133.711 40.435 133.852 40.4431 133.995 40.4409C134.198 40.4409 134.408 40.4548 134.626 40.4548C142.199 40.4548 146.764 39.5571 150.07 38.2672C152.75 37.4171 154.652 36.2046 156.901 34.4035C158.755 33.1918 160.174 31.6696 161.338 29.9919C161.981 29.1439 162.55 28.242 163.04 27.2961C163.896 25.6557 164.655 23.9652 165.31 22.2337C166.619 19.2676 167.702 15.3542 168.277 13.1039C168.896 10.6775 170.228 8.38557 172.262 6.48144C173.676 5.16417 175.302 4.09685 177.071 3.3247L178.138 2.84484L103.263 2.93906Z" fill="#949494"/>
</g>
<g style="mix-blend-mode:multiply" opacity="0.34">
<path d="M103.256 2.74997L28.6636 2.65137L29.745 3.13196C31.5108 3.90549 33.1336 4.97327 34.5449 6.29017C36.5725 8.19502 37.9041 10.4877 38.5215 12.9148C39.0946 15.1695 40.1797 19.0851 41.4807 22.052C42.1346 23.7838 42.8906 25.4749 43.7447 27.1165C44.2331 28.0623 44.8007 28.9646 45.4414 29.8138C46.605 31.4937 48.0195 33.0144 49.8667 34.2268C52.1096 36.0294 54.0034 37.2419 56.6753 38.0928C59.9705 39.3834 64.5202 40.2839 72.0684 40.2839C72.2866 40.2839 72.4946 40.273 72.6968 40.2701C72.8422 40.2701 72.9804 40.2642 73.1171 40.2642H133.465C133.602 40.2642 133.742 40.2723 133.885 40.2701C134.087 40.2701 134.296 40.2839 134.514 40.2839C142.062 40.2839 146.611 39.3863 149.907 38.0928C152.578 37.2419 154.472 36.0294 156.715 34.2268C158.562 33.0144 159.978 31.4915 161.139 29.8138C161.78 28.9648 162.348 28.0624 162.836 27.1165C163.689 25.4748 164.445 23.7836 165.099 22.052C166.399 19.0851 167.482 15.1695 168.055 12.9148C168.673 10.4877 170 8.19502 172.027 6.29017C173.436 4.97303 175.057 3.90518 176.821 3.13196L177.887 2.65137L103.256 2.74997Z" fill="#909090"/>
</g>
<g style="mix-blend-mode:multiply" opacity="0.35">
<path d="M103.249 2.56076L28.9048 2.46216L29.9833 2.94275C31.7453 3.71661 33.3641 4.7847 34.7708 6.10169C36.7912 8.00727 38.1162 10.3014 38.7337 12.7292C39.3053 14.9847 40.3867 18.9018 41.6834 21.8701C42.3343 23.6023 43.0872 25.2942 43.9379 26.9368C44.424 27.8828 44.9897 28.7855 45.6288 29.6348C46.7866 31.3147 48.1982 32.8361 50.0389 34.0493C52.2745 35.8526 54.1624 37.0658 56.8249 37.9204C60.1092 39.211 64.6436 40.1115 72.17 40.1115C72.3882 40.1115 72.5955 40.0998 72.7969 40.0969C72.9387 40.0969 73.0791 40.0918 73.2158 40.0918H133.36C133.497 40.0918 133.636 40.0991 133.779 40.0969C133.98 40.0969 134.189 40.1115 134.406 40.1115C141.928 40.1115 146.463 39.2131 149.751 37.9204C152.413 37.0687 154.301 35.8555 156.536 34.0493C158.378 32.8361 159.788 31.3133 160.946 29.6348C161.585 28.7853 162.151 27.8827 162.637 26.9368C163.488 25.2941 164.24 23.6022 164.892 21.8701C166.188 18.9018 167.268 14.9847 167.838 12.7292C168.454 10.3014 169.776 8.00727 171.797 6.10169C173.2 4.7848 174.815 3.71665 176.574 2.94275L177.634 2.46216L103.249 2.56076Z" fill="#8C8C8C"/>
</g>
<g style="mix-blend-mode:multiply" opacity="0.36">
<path d="M103.242 2.37082L29.147 2.27295L30.2219 2.75355C31.979 3.52916 33.5924 4.59853 34.9934 5.91613C37.0072 7.82245 38.33 10.1173 38.9431 12.5459C39.5126 14.8028 40.5904 18.7213 41.8827 21.6903C42.5317 23.423 43.2826 25.1153 44.1314 26.7585C44.6159 27.7058 45.1799 28.6098 45.8172 29.461C46.9713 31.1408 48.3778 32.6637 50.212 33.8776C52.4396 35.6817 54.321 36.8949 56.9755 37.7487C60.2481 39.04 64.768 39.9398 72.266 39.9398C72.4842 39.9398 72.6893 39.9289 72.8907 39.926C73.0318 39.926 73.1722 39.9201 73.3075 39.9201H133.252C133.388 39.9201 133.528 39.9282 133.67 39.926C133.87 39.926 134.078 39.9398 134.294 39.9398C141.792 39.9398 146.311 39.0415 149.584 37.7487C152.238 36.897 154.12 35.6839 156.348 33.8776C158.183 32.6637 159.588 31.1401 160.743 29.461C161.38 28.6098 161.944 27.7057 162.428 26.7585C163.276 25.1153 164.027 23.4229 164.676 21.6903C165.968 18.7213 167.044 14.8028 167.613 12.5459C168.226 10.1173 169.544 7.82245 171.558 5.91613C172.955 4.59939 174.566 3.53072 176.32 2.75574L177.378 2.27295L103.242 2.37082Z" fill="#888887"/>
</g>
<g style="mix-blend-mode:multiply" opacity="0.37">
<path d="M103.235 2.18161L29.3892 2.08374L30.4604 2.56434C32.2125 3.34011 33.8206 4.40928 35.2159 5.72619C37.2224 7.63324 38.541 9.92885 39.1519 12.3581C39.7198 14.6158 40.794 18.5358 42.082 21.5062C42.729 23.2392 43.4774 24.9323 44.3234 26.5766C44.8061 27.5236 45.3681 28.4277 46.0033 29.279C47.1531 30.9589 48.5553 32.4833 50.3836 33.6972C52.609 35.4961 54.4795 36.7159 57.1238 37.5682C60.3863 38.8596 64.8902 39.7594 72.3628 39.7594C72.5809 39.7594 72.7853 39.7484 72.9853 39.7455C73.1264 39.7455 73.266 39.7397 73.4013 39.7397H133.144C133.279 39.7397 133.419 39.7477 133.56 39.7455C133.761 39.7455 133.968 39.7594 134.183 39.7594C141.655 39.7594 146.159 38.8603 149.421 37.5682C152.066 36.7159 153.941 35.502 156.162 33.6972C157.99 32.4833 159.391 30.9589 160.542 29.279C161.177 28.4277 161.739 27.5236 162.221 26.5766C163.067 24.9322 163.815 23.2391 164.462 21.5062C165.749 18.5358 166.821 14.6158 167.389 12.3581C168 9.92885 169.313 7.63324 171.321 5.72619C172.713 4.40911 174.319 3.33987 176.069 2.56434L177.121 2.08374L103.235 2.18161Z" fill="#848483"/>
</g>
<g style="mix-blend-mode:multiply" opacity="0.39">
<path d="M103.228 1.99252L29.6294 1.89392L30.697 2.37525C32.444 3.15143 34.0466 4.22093 35.4358 5.53783C37.4365 7.44561 38.7507 9.74268 39.363 12.1734C39.9281 14.431 40.9993 18.3532 42.2822 21.3245C42.9276 23.0577 43.6736 24.7515 44.5163 26.397C44.9969 27.3437 45.5564 28.2477 46.189 29.0995C47.3359 30.7793 48.7344 32.3051 50.5526 33.5198C52.7722 35.3165 54.6347 36.5392 57.2703 37.3908C60.5218 38.6836 65.0112 39.582 72.4583 39.582C72.6721 39.582 72.8786 39.5703 73.0786 39.5674C73.219 39.5674 73.3579 39.5623 73.4932 39.5623H133.034C133.169 39.5623 133.308 39.5703 133.449 39.5674C133.648 39.5674 133.856 39.582 134.069 39.582C141.516 39.582 146.005 38.6829 149.257 37.3908C151.892 36.5385 153.761 35.3246 155.974 33.5198C157.797 32.3051 159.193 30.7808 160.338 29.0995C160.97 28.2476 161.53 27.3435 162.011 26.397C162.853 24.7516 163.599 23.0578 164.243 21.3245C165.526 18.3532 166.595 14.431 167.16 12.1734C167.77 9.74268 169.079 7.44561 171.079 5.53783C172.464 4.22146 174.063 3.15194 175.806 2.37525L176.855 1.89392L103.228 1.99252Z" fill="#80807F"/>
</g>
<g style="mix-blend-mode:multiply" opacity="0.4">
<path d="M103.221 1.80331L29.8735 1.70471L30.9375 2.18604C32.6795 2.96334 34.2766 4.03337 35.6603 5.35008C37.6537 7.25859 38.9635 9.5564 39.57 11.9879C40.1337 14.247 41.2013 18.1699 42.4791 21.1426C43.1221 22.8761 43.8657 24.5703 44.7059 26.2166C45.1849 27.1632 45.743 28.0672 46.3743 28.919C47.5168 30.5989 48.9095 32.1261 50.7254 33.3408C52.9392 35.1368 54.7937 36.3617 57.4162 37.2118C60.6569 38.5046 65.1309 39.403 72.5526 39.403C72.7664 39.403 72.9722 39.3921 73.1708 39.3891C73.3111 39.3891 73.45 39.3833 73.5839 39.3833H132.924C133.058 39.3833 133.197 39.3913 133.337 39.3891C133.536 39.3891 133.742 39.403 133.956 39.403C141.374 39.403 145.851 38.5039 149.091 37.2118C151.718 36.3588 153.581 35.1441 155.786 33.3408C157.605 32.1261 158.994 30.6011 160.137 28.919C160.768 28.0672 161.326 27.1632 161.805 26.2166C162.645 24.5705 163.388 22.8762 164.03 21.1426C165.309 18.1699 166.374 14.247 166.939 11.9879C167.545 9.5564 168.851 7.25859 170.844 5.35008C172.225 4.03325 173.82 2.96316 175.56 2.18604L176.606 1.70471L103.221 1.80331Z" fill="#7C7C7B"/>
</g>
<g style="mix-blend-mode:multiply" opacity="0.41">
<path d="M103.214 1.61338L30.1152 1.5155L31.1763 1.99683C32.9132 2.77499 34.505 3.8453 35.8831 5.1616C37.87 7.07084 39.1747 9.36938 39.7798 11.8023C40.3412 14.0621 41.4052 17.9865 42.6793 20.9607C43.3195 22.6948 44.0604 24.3898 44.8982 26.0369C45.3758 26.9831 45.9322 27.8871 46.5614 28.7393C47.7003 30.4192 49.0872 31.9472 50.8973 33.1633C53.1053 34.9578 54.9518 36.1849 57.5699 37.038C60.7989 38.3315 65.2578 39.2291 72.6547 39.2291C72.867 39.2291 73.0721 39.2182 73.2707 39.2153C73.4103 39.2153 73.5485 39.2094 73.6823 39.2094H132.821C132.954 39.2094 133.093 39.2175 133.232 39.2153C133.431 39.2153 133.636 39.2291 133.849 39.2291C141.245 39.2291 145.703 38.3293 148.934 37.038C151.552 36.1849 153.408 34.9695 155.606 33.1633C157.415 31.9472 158.806 30.4221 159.942 28.7393C160.57 27.8873 161.126 26.9832 161.603 26.0369C162.441 24.3898 163.181 22.6948 163.821 20.9607C165.096 17.9865 166.157 14.0621 166.719 11.8023C167.323 9.36938 168.624 7.07084 170.61 5.1616C171.985 3.84533 173.574 2.77496 175.308 1.99683L176.35 1.5155L103.214 1.61338Z" fill="#787877"/>
</g>
<g style="mix-blend-mode:multiply" opacity="0.42">
<path d="M103.207 1.42427L30.3574 1.32567L31.4178 1.80773C33.1487 2.58709 34.7341 3.65793 36.1057 4.97396C38.0853 6.88393 39.3863 9.1832 39.9885 11.6205C40.5485 13.8811 41.6088 17.8076 42.8786 20.7825C43.5169 22.5154 44.2553 24.2093 45.0902 25.8558C45.5656 26.802 46.1201 27.7061 46.7476 28.5582C47.8821 30.2381 49.2647 31.7676 51.069 32.9837C53.2711 34.7768 55.1089 36.0067 57.7183 36.8606C60.9364 38.1541 65.3799 39.0517 72.7514 39.0517C72.9638 39.0517 73.1681 39.04 73.366 39.0371C73.5049 39.0371 73.6423 39.032 73.7761 39.032H132.713C132.846 39.032 132.984 39.04 133.123 39.0371C133.321 39.0371 133.525 39.0517 133.737 39.0517C141.109 39.0517 145.552 38.1512 148.771 36.8606C151.38 36.0067 153.23 34.7914 155.419 32.9837C157.224 31.7676 158.606 30.2418 159.741 28.5582C160.368 27.7059 160.922 26.8019 161.398 25.8558C162.232 24.2077 162.97 22.512 163.608 20.7774C164.878 17.8025 165.935 13.8759 166.496 11.6154C167.098 9.18173 168.394 6.88247 170.374 4.96885C171.743 3.65242 173.326 2.58148 175.055 1.80261L176.094 1.32056L103.207 1.42427Z" fill="#747473"/>
</g>
<g style="mix-blend-mode:multiply" opacity="0.44">
<path d="M103.198 1.23507L30.5996 1.13647L31.6527 1.61853C33.3798 2.39866 34.9612 3.47004 36.3282 4.78622C38.3013 6.69692 39.6009 8.99692 40.1979 11.4328C40.7557 13.697 41.8125 17.6221 43.0779 20.5984C43.7137 22.3332 44.4494 24.0294 45.2815 25.6783C45.7556 26.6252 46.308 27.5304 46.9331 28.3844C48.064 30.0643 49.4421 31.5944 51.2399 32.8113C53.4362 34.6029 55.2667 35.8351 57.8666 36.6889C61.0746 37.9831 65.5028 38.8844 72.8481 38.8844C73.059 38.8844 73.2627 38.8727 73.4598 38.8698C73.5987 38.8698 73.7354 38.864 73.8685 38.864H132.604C132.737 38.864 132.874 38.872 133.013 38.8698C133.21 38.8698 133.414 38.8844 133.625 38.8844C140.97 38.8844 145.399 37.9831 148.606 36.6889C151.206 35.8351 153.05 34.619 155.233 32.8113C157.03 31.5944 158.408 30.0679 159.539 28.3844C160.164 27.5305 160.717 26.6253 161.19 25.6783C162.022 24.0289 162.758 22.3322 163.394 20.597C164.66 17.6206 165.714 13.6933 166.272 11.4313C166.872 8.99692 168.163 6.69692 170.137 4.78476C171.5 3.46868 173.079 2.39724 174.803 1.61707L175.838 1.13501L103.198 1.23507Z" fill="#70706F"/>
</g>
<g style="mix-blend-mode:multiply" opacity="0.45">
<path d="M103.193 1.04514L30.8418 0.949463L31.8912 1.43152C33.6134 2.21259 35.1892 3.28479 36.55 4.60141C38.5136 6.51284 39.8081 8.81429 40.4045 11.2479C40.9609 13.5122 42.0132 17.4402 43.275 20.4173C43.9085 22.1525 44.6419 23.8494 45.4713 25.4993C45.9435 26.4462 46.4941 27.3517 47.1171 28.2061C48.2443 29.8904 49.6174 31.4198 51.4079 32.6345C53.5977 34.4254 55.4202 35.6597 58.0114 36.5143C61.212 37.8071 65.6243 38.7106 72.9442 38.7106C73.1551 38.7106 73.358 38.6996 73.5543 38.6967C73.6925 38.6967 73.8292 38.6909 73.9616 38.6909H132.496C132.628 38.6909 132.765 38.6989 132.903 38.6967C133.099 38.6967 133.302 38.7106 133.513 38.7106C140.834 38.7106 145.247 37.81 148.444 36.515C151.035 35.6605 152.872 34.4444 155.047 32.6352C156.838 31.4184 158.211 29.8911 159.338 28.2069C159.961 27.3524 160.511 26.4469 160.984 25.5C161.813 23.8501 162.546 22.1532 163.179 20.418C164.44 17.4409 165.491 13.5114 166.046 11.2487C166.645 8.81356 167.932 6.51211 169.901 4.60214C171.258 3.28632 172.831 2.21459 174.55 1.43371L175.581 0.951654L103.193 1.04514Z" fill="#6B6B6B"/>
</g>
<g style="mix-blend-mode:multiply" opacity="0.46">
<path d="M103.185 0.856049L31.0835 0.757446L32.1293 1.24169C33.8463 2.02346 35.4167 3.09569 36.7721 4.41158C38.7357 6.32374 40.0193 8.62593 40.6157 11.0618C41.1698 13.326 42.2156 17.2562 43.476 20.2347C44.107 21.9705 44.8377 23.6681 45.6643 25.319C46.1349 26.266 46.6837 27.1716 47.305 28.0265C48.4279 29.7115 49.7965 31.2402 51.582 32.4571C53.7637 34.2458 55.5819 35.4831 58.1629 36.3376C61.349 37.6333 65.746 38.5346 73.0426 38.5346C73.252 38.5346 73.455 38.5229 73.6499 38.5208C73.788 38.5208 73.924 38.5149 74.0564 38.5149H132.389C132.521 38.5149 132.657 38.5229 132.795 38.5208C132.99 38.5208 133.193 38.5346 133.403 38.5346C140.699 38.5346 145.096 37.6333 148.282 36.3376C150.863 35.4831 152.695 34.2662 154.863 32.4571C156.648 31.2395 158.016 29.7115 159.14 28.0265C159.76 27.1716 160.309 26.2659 160.779 25.319C161.605 23.6671 162.336 21.9686 162.966 20.2318C164.224 17.2533 165.27 13.3223 165.825 11.0589C166.421 8.62301 167.704 6.32082 169.663 4.40866C171.016 3.09407 172.583 2.02281 174.297 1.24169L175.325 0.758907L103.185 0.856049Z" fill="#676766"/>
</g>
<g style="mix-blend-mode:multiply" opacity="0.47">
<path d="M103.179 0.66684L31.3262 0.568237L32.3691 1.05102C34.0807 1.83376 35.6455 2.90626 36.9951 4.22164C38.9478 6.13526 40.2307 8.43818 40.8249 10.8755C41.3776 13.1397 42.4248 17.0721 43.6757 20.0514C44.3049 21.7876 45.0334 23.4859 45.8575 25.1378C46.3253 26.0848 46.8715 26.9908 47.4902 27.8461C48.6094 29.5318 49.973 31.0598 51.7519 32.2781C53.9337 34.0661 55.7373 35.3055 58.3103 36.1608C61.4855 37.4565 65.868 38.3586 73.1383 38.3586C73.3478 38.3586 73.5493 38.3469 73.7442 38.344C73.8816 38.344 74.0169 38.3388 74.1485 38.3388H132.281C132.413 38.3388 132.549 38.3461 132.686 38.344C132.881 38.344 133.082 38.3586 133.292 38.3586C140.565 38.3586 144.945 37.4565 148.119 36.1608C150.692 35.3055 152.517 34.0887 154.678 32.2781C156.457 31.0605 157.82 29.5318 158.939 27.8461C159.559 26.9908 160.105 26.0849 160.574 25.1378C161.398 23.4861 162.126 21.7877 162.755 20.0514C164.008 17.0721 165.052 13.1397 165.604 10.8755C166.198 8.43818 167.477 6.13526 169.429 4.22164C170.776 2.9063 172.338 1.83374 174.047 1.05102L175.071 0.568237L103.179 0.66684Z" fill="#636362"/>
</g>
<g style="mix-blend-mode:multiply" opacity="0.49">
<path d="M103.172 0.477623L31.5674 0.37902L32.6066 0.861807C34.3136 1.64534 35.8733 2.71839 37.2174 4.03389C39.1629 5.94751 40.4414 8.25115 41.0341 10.6899C41.5846 12.9541 42.6261 16.8887 43.8748 19.8695C44.5014 21.6059 45.2269 23.3046 46.0478 24.9573C46.5149 25.9045 47.0598 26.8109 47.6769 27.6671C48.7925 29.3536 50.1495 30.8808 51.9248 32.1013C54.0978 33.89 55.8963 35.1317 58.4606 35.9848C61.6242 37.2812 65.9914 38.1832 73.237 38.1832C73.445 38.1832 73.6465 38.1723 73.8407 38.1693C73.9774 38.1693 74.1126 38.1635 74.2435 38.1635H132.173C132.304 38.1635 132.439 38.1715 132.576 38.1693C132.77 38.1693 132.972 38.1832 133.18 38.1832C140.425 38.1832 144.793 37.2812 147.956 35.9848C150.52 35.1302 152.339 33.9119 154.492 32.1013C156.265 30.8823 157.624 29.3536 158.739 27.6671C159.356 26.8109 159.901 25.9045 160.368 24.9573C161.189 23.3038 161.915 21.6041 162.542 19.8665C163.791 16.8858 164.83 12.9519 165.378 10.687C165.97 8.24823 167.244 5.94458 169.191 4.03097C170.531 2.71558 172.088 1.64247 173.792 0.858886L174.81 0.376099L103.172 0.477623Z" fill="#5F5F5E"/>
</g>
<g style="mix-blend-mode:multiply" opacity="0.5">
<path d="M103.164 0.287812L31.8096 0.189209L32.8445 0.672727C34.5464 1.45721 36.1009 2.53081 37.4393 3.84627C39.3789 5.76062 40.653 8.06499 41.2428 10.5045C41.7912 12.7687 42.8297 16.7055 44.074 19.6877C44.6981 21.4247 45.4212 23.1242 46.2398 24.7778C46.7049 25.725 47.2478 26.6317 47.863 27.4882C48.9743 29.1754 50.3292 30.7019 52.0957 31.9239C54.2629 33.709 56.0534 34.9543 58.609 35.8096C61.7616 37.106 66.1136 38.0088 73.3338 38.0088C73.5418 38.0088 73.7418 37.9971 73.9352 37.9949C74.0719 37.9949 74.2065 37.989 74.3374 37.989H132.065C132.196 37.989 132.33 37.9971 132.467 37.9949C132.66 37.9949 132.861 38.0088 133.068 38.0088C140.289 38.0088 144.641 37.106 147.793 35.8096C150.349 34.9543 152.161 33.736 154.307 31.9239C156.073 30.7049 157.427 29.1754 158.538 27.4882C159.154 26.6317 159.697 25.725 160.162 24.7778C160.979 23.1241 161.701 21.4246 162.324 19.6877C163.568 16.7055 164.604 12.7702 165.152 10.5045C165.743 8.06499 167.012 5.76062 168.951 3.84627C170.286 2.53109 171.838 1.45745 173.537 0.672727L174.555 0.189209L103.164 0.287812Z" fill="#5B5B5A"/>
</g>
<g style="mix-blend-mode:multiply" opacity="0.51">
<path d="M103.158 0.0986025L32.0518 0L33.083 0.482787C34.7808 1.2684 36.3308 2.34251 37.6647 3.65779C39.5971 5.57287 40.8647 7.87871 41.4552 10.3189C42.0014 12.5831 43.0362 16.5229 44.2762 19.5058C44.8978 21.2434 45.6185 22.9437 46.4347 24.598C46.8978 25.5454 47.4388 26.4523 48.0521 27.3092C49.1597 28.9972 50.5095 30.5273 52.2702 31.7471C54.4076 33.5592 56.2134 34.7782 58.7603 35.6335C61.8991 36.9314 66.2357 37.8342 73.4312 37.8342C73.6378 37.8342 73.8378 37.8225 74.0305 37.8195C74.1665 37.8195 74.3003 37.8144 74.4312 37.8144H131.957C132.087 37.8144 132.222 37.8217 132.358 37.8195C132.551 37.8195 132.75 37.8342 132.957 37.8342C140.152 37.8342 144.489 36.9314 147.63 35.6335C150.176 34.7782 151.983 33.5592 154.12 31.7471C155.881 30.5273 157.231 28.9972 158.338 27.3092C158.951 26.4521 159.492 25.5453 159.955 24.598C160.771 22.9436 161.491 21.2434 162.112 19.5058C163.349 16.5229 164.385 12.5861 164.931 10.3189C165.548 7.78679 166.86 5.47911 168.717 3.65779C170.047 2.34289 171.593 1.26874 173.287 0.482787L174.3 0L103.158 0.0986025Z" fill="#575756"/>
</g>
</g>
<path d="M103.158 0.0986025L32.0518 0L33.083 0.482787C34.7808 1.2684 36.3308 2.34251 37.6647 3.65779C39.597 5.57287 40.8647 7.87871 41.4552 10.3189C42.0014 12.5831 43.0362 16.5229 44.2762 19.5058C44.8978 21.2434 45.6185 22.9437 46.4347 24.598C46.8978 25.5454 47.4388 26.4523 48.0521 27.3092C49.1597 28.9972 50.5095 30.5273 52.2702 31.7471C54.4076 33.5592 56.2134 34.7782 58.7603 35.6335C61.8991 36.9314 66.2357 37.8342 73.4312 37.8342C73.6378 37.8342 73.8378 37.8225 74.0305 37.8195C74.1665 37.8195 74.3003 37.8144 74.4312 37.8144H131.957C132.087 37.8144 132.222 37.8217 132.358 37.8195C132.551 37.8195 132.75 37.8342 132.957 37.8342C140.152 37.8342 144.489 36.9314 147.63 35.6335C150.176 34.7782 151.983 33.5592 154.12 31.7471C155.881 30.5273 157.231 28.9972 158.338 27.3092C158.951 26.4521 159.492 25.5453 159.955 24.598C160.771 22.9436 161.491 21.2434 162.112 19.5058C163.349 16.5229 164.385 12.5861 164.931 10.3189C165.548 7.78679 166.86 5.47911 168.717 3.65779C170.047 2.34289 171.593 1.26874 173.286 0.482787L174.3 0L103.158 0.0986025Z" fill="url(#paint3_linear)"/>
<path d="M64.6094 25.8018V11.3898H69.7642C71.61 11.3898 73.0143 11.7306 73.9772 12.4123C74.9401 13.094 75.4215 14.0805 75.4215 15.3719C75.4215 16.1178 75.2518 16.7545 74.9124 17.2818C74.573 17.8092 74.0703 18.1987 73.4041 18.4504C74.1532 18.6481 74.7282 19.0175 75.1291 19.5584C75.5301 20.0994 75.7306 20.7594 75.7306 21.5385C75.7306 22.9506 75.2853 24.0114 74.3946 24.7208C73.504 25.4303 72.185 25.7916 70.4376 25.8047L64.6094 25.8018ZM68.0711 17.398H69.8747C70.6306 17.3916 71.1692 17.2526 71.4907 16.9809C71.8121 16.7092 71.9731 16.3089 71.9736 15.7801C71.9736 15.171 71.7995 14.7328 71.4514 14.4654C71.1033 14.1981 70.5416 14.064 69.7664 14.063H68.0711V17.398ZM68.0711 19.6746V23.1293H70.338C70.962 23.1293 71.4415 22.9857 71.7765 22.6984C72.1115 22.4111 72.279 22.007 72.279 21.4859C72.279 20.2852 71.6846 19.6814 70.4958 19.6746H68.0711Z" fill="white"/>
<path d="M85.9813 23.1096H81.2411L80.4127 25.8018H76.7168L81.98 11.3898H85.2344L90.5369 25.8018H86.8213L85.9813 23.1096ZM82.0687 20.4269H85.1537L83.6061 15.4281L82.0687 20.4269Z" fill="white"/>
<path d="M104.841 20.1698H103.087V25.8018H99.6467V20.1698H97.8627L95.1035 25.8018H90.8062L95.1326 17.9326L90.9342 11.3898H95.2977L98.2344 17.0415H99.6438V11.3898H103.084V17.0415H104.483L107.292 11.3898H111.649L107.561 17.9129L111.8 25.8011H107.483L104.841 20.1698Z" fill="white"/>
<path d="M125.03 25.8018H121.591V19.7834H116.495V25.8018H113.035V11.3898H116.495V17.1109H121.591V11.3898H125.03V25.8018Z" fill="white"/>
<path d="M139.572 18.8923C139.572 20.2985 139.312 21.5426 138.793 22.6246C138.274 23.7065 137.536 24.5401 136.579 25.1254C135.622 25.7097 134.533 26.0019 133.311 26.0019C132.089 26.0019 131.005 25.7197 130.059 25.1554C129.112 24.5915 128.375 23.7849 127.846 22.7356C127.318 21.6863 127.04 20.4818 127.014 19.1223V18.3087C127.014 16.8966 127.272 15.651 127.787 14.572C128.303 13.493 129.042 12.6599 130.005 12.0726C130.967 11.4854 132.062 11.1918 133.291 11.1918C134.507 11.1918 135.592 11.482 136.544 12.0624C137.497 12.6428 138.238 13.4694 138.767 14.5421C139.296 15.6133 139.563 16.8423 139.567 18.2291L139.572 18.8923ZM136.053 18.289C136.053 16.8564 135.815 15.7691 135.339 15.027C134.862 14.285 134.18 13.9139 133.294 13.9139C131.559 13.9139 130.643 15.2204 130.544 17.8332L130.534 18.8923C130.534 20.3044 130.768 21.39 131.234 22.1491C131.7 22.9082 132.393 23.2878 133.313 23.2878C134.186 23.2878 134.86 22.9148 135.334 22.1688C135.809 21.4228 136.049 20.3516 136.053 18.9551V18.289Z" fill="white"/>
<path d="M141.489 24.3066C141.483 24.0795 141.527 23.8538 141.618 23.6459C141.71 23.438 141.846 23.253 142.017 23.1044C142.368 22.7913 142.806 22.6345 143.332 22.634C143.858 22.6335 144.297 22.7903 144.648 23.1044C144.814 23.2571 144.947 23.4429 145.037 23.6499C145.128 23.857 145.175 24.0807 145.175 24.3069C145.175 24.5332 145.128 24.7569 145.037 24.964C144.947 25.171 144.814 25.3568 144.648 25.5095C144.296 25.8231 143.858 25.9799 143.332 25.9799C142.807 25.9799 142.368 25.8231 142.017 25.5095C141.845 25.3608 141.709 25.1757 141.618 24.9677C141.527 24.7596 141.483 24.5338 141.489 24.3066ZM144.702 21.2389H142.012L141.588 11.3904H145.126L144.702 21.2389Z" fill="white"/>
<defs>
<linearGradient id="paint0_linear" x1="19.0506" y1="6.5735" x2="45.0529" y2="6.5735" gradientUnits="userSpaceOnUse">
<stop stop-color="#B30D0E"/>
<stop offset="0.15" stop-color="#AA0E0E"/>
<stop offset="0.39" stop-color="#920F10"/>
<stop offset="0.7" stop-color="#6B1212"/>
<stop offset="1" stop-color="#3E1514"/>
</linearGradient>
<radialGradient id="paint1_radial" cx="0" cy="0" r="1" gradientUnits="userSpaceOnUse" gradientTransform="translate(103.923 -25.121) rotate(180) scale(102.634 5.87483)">
<stop stop-color="#262626"/>
<stop offset="1" stop-color="white"/>
</radialGradient>
<linearGradient id="paint2_linear" x1="-10808.7" y1="1183.23" x2="-20105.6" y2="1183.23" gradientUnits="userSpaceOnUse">
<stop stop-color="#B30D0E"/>
<stop offset="0.15" stop-color="#AA0E0E"/>
<stop offset="0.39" stop-color="#920F10"/>
<stop offset="0.7" stop-color="#6B1212"/>
<stop offset="1" stop-color="#3E1514"/>
</linearGradient>
<linearGradient id="paint3_linear" x1="103.176" y1="37.8342" x2="103.176" y2="0" gradientUnits="userSpaceOnUse">
<stop stop-color="#E00D0E"/>
<stop offset="0.41" stop-color="#DD0E0E"/>
<stop offset="0.66" stop-color="#D50F10"/>
<stop offset="0.86" stop-color="#C71212"/>
<stop offset="1" stop-color="#B81514"/>
</linearGradient>
</defs>
</svg>
